<?xml version="1.0" encoding="utf-8"?>
<!-- Generator: Adobe Illustrator 16.0.4, SVG Export Plug-In . SVG Version: 6.00 Build 0)  -->
<!DOCTYPE svg PUBLIC "-//W3C//DTD SVG 1.1//EN" "http://www.w3.org/Graphics/SVG/1.1/DTD/svg11.dtd">
<svg version="1.1" id="Layer_1" xmlns="http://www.w3.org/2000/svg" xmlns:xlink="http://www.w3.org/1999/xlink" x="0px" y="0px"
	 width="16px" height="25px" viewBox="0 0 16 25" enable-background="new 0 0 16 25" xml:space="preserve">
<g id="Succeed">
</g>
<g id="Succeed_1_">
</g>
<path fill="#61AB00" d="M16,8c0-4.418-3.582-8-8-8S0,3.582,0,8c0,4.079,3.055,7.438,7,7.931V25h2v-9.069
	C12.945,15.438,16,12.079,16,8z"/>
<g>
	<g>
		<path fill="#FFFFFF" d="M4.177,7.069h0.539c0.154,0,0.305-0.011,0.451-0.033S5.448,6.973,5.569,6.91S5.787,6.76,5.86,6.646
			S5.97,6.384,5.97,6.201c0-0.235-0.093-0.429-0.279-0.583C5.503,5.463,5.273,5.387,5.003,5.387c-0.258,0-0.471,0.07-0.639,0.209
			c-0.169,0.139-0.279,0.312-0.33,0.517L2.22,5.739c0.088-0.337,0.22-0.625,0.396-0.864c0.177-0.238,0.386-0.431,0.627-0.578
			c0.242-0.146,0.512-0.254,0.809-0.324s0.61-0.104,0.94-0.104c0.345,0,0.677,0.042,0.996,0.126c0.318,0.084,0.6,0.216,0.841,0.396
			c0.242,0.18,0.435,0.405,0.577,0.676C7.549,5.339,7.62,5.662,7.62,6.036c0,0.433-0.113,0.803-0.341,1.111s-0.558,0.506-0.99,0.594
			v0.033c0.235,0.029,0.442,0.099,0.622,0.209c0.18,0.11,0.332,0.246,0.456,0.407s0.22,0.345,0.286,0.55
			c0.066,0.206,0.1,0.422,0.1,0.649c0,0.389-0.076,0.73-0.227,1.023c-0.15,0.293-0.352,0.537-0.604,0.731s-0.55,0.339-0.892,0.434
			c-0.34,0.095-0.701,0.143-1.083,0.143c-0.696,0-1.296-0.161-1.798-0.484c-0.503-0.323-0.835-0.832-0.996-1.529L3.892,9.5
			C3.95,9.779,4.069,10,4.249,10.161s0.445,0.242,0.797,0.242c0.359,0,0.625-0.093,0.798-0.28s0.259-0.427,0.259-0.721
			c0-0.22-0.047-0.39-0.138-0.511c-0.092-0.121-0.211-0.211-0.357-0.27C5.46,8.562,5.296,8.527,5.112,8.516
			C4.929,8.505,4.745,8.5,4.562,8.5H4.177V7.069z"/>
		<path fill="#FFFFFF" d="M8.412,10.04l3.024-2.717c0.154-0.139,0.309-0.297,0.463-0.473c0.154-0.176,0.23-0.381,0.23-0.616
			c0-0.264-0.096-0.471-0.285-0.621c-0.191-0.15-0.415-0.226-0.672-0.226c-0.308,0-0.548,0.095-0.721,0.286
			c-0.172,0.191-0.27,0.426-0.291,0.704l-1.65-0.121c0.022-0.403,0.106-0.753,0.254-1.05c0.146-0.297,0.34-0.544,0.582-0.743
			C9.589,4.265,9.873,4.116,10.2,4.017c0.326-0.099,0.68-0.148,1.061-0.148c0.353,0,0.682,0.049,0.99,0.148s0.576,0.246,0.803,0.44
			c0.228,0.194,0.405,0.438,0.533,0.731c0.129,0.293,0.193,0.634,0.193,1.023c0,0.25-0.025,0.475-0.077,0.677
			s-0.123,0.385-0.214,0.55c-0.092,0.165-0.201,0.317-0.325,0.457c-0.125,0.14-0.261,0.275-0.407,0.407l-2.365,2.035h3.455v1.452
			H8.412V10.04z"/>
	</g>
</g>
</svg>
