<?xml version="1.0" encoding="utf-8"?>
<!-- Generator: Adobe Illustrator 16.0.4, SVG Export Plug-In . SVG Version: 6.00 Build 0)  -->
<!DOCTYPE svg PUBLIC "-//W3C//DTD SVG 1.1//EN" "http://www.w3.org/Graphics/SVG/1.1/DTD/svg11.dtd">
<svg version="1.1" id="Layer_1" xmlns="http://www.w3.org/2000/svg" xmlns:xlink="http://www.w3.org/1999/xlink" x="0px" y="0px"
	 width="16px" height="25px" viewBox="0 0 16 25" enable-background="new 0 0 16 25" xml:space="preserve">
<g id="Succeed">
</g>
<g id="Succeed_1_">
</g>
<path fill="#FC5B00" d="M16,8c0-4.418-3.582-8-8-8S0,3.582,0,8c0,4.079,3.055,7.438,7,7.931V25h2v-9.069
	C12.945,15.438,16,12.079,16,8z"/>
<g>
	<g>
		<path fill="#FFFFFF" d="M4.039,7.069h0.539c0.154,0,0.305-0.011,0.451-0.033S5.311,6.973,5.432,6.91S5.65,6.76,5.723,6.646
			c0.074-0.114,0.109-0.262,0.109-0.445c0-0.235-0.092-0.429-0.279-0.583C5.365,5.463,5.137,5.387,4.865,5.387
			c-0.258,0-0.471,0.07-0.639,0.209s-0.279,0.312-0.33,0.517L2.082,5.739C2.17,5.401,2.303,5.113,2.479,4.875
			s0.385-0.431,0.627-0.578c0.242-0.146,0.512-0.254,0.809-0.324s0.609-0.104,0.939-0.104c0.346,0,0.678,0.042,0.996,0.126
			s0.6,0.216,0.842,0.396s0.434,0.405,0.576,0.676c0.145,0.271,0.215,0.594,0.215,0.968c0,0.433-0.113,0.803-0.34,1.111
			c-0.229,0.308-0.559,0.506-0.99,0.594v0.033c0.234,0.029,0.441,0.099,0.621,0.209c0.18,0.11,0.332,0.246,0.457,0.407
			c0.123,0.161,0.219,0.345,0.285,0.55c0.066,0.206,0.1,0.422,0.1,0.649c0,0.389-0.076,0.73-0.227,1.023
			c-0.15,0.293-0.352,0.537-0.604,0.731c-0.254,0.194-0.551,0.339-0.893,0.434c-0.34,0.095-0.701,0.143-1.082,0.143
			c-0.697,0-1.297-0.161-1.799-0.484s-0.834-0.832-0.996-1.529L3.754,9.5C3.812,9.779,3.932,10,4.111,10.161
			s0.445,0.242,0.797,0.242c0.359,0,0.625-0.093,0.799-0.28c0.172-0.187,0.258-0.427,0.258-0.721c0-0.22-0.047-0.39-0.137-0.511
			c-0.092-0.121-0.211-0.211-0.357-0.27C5.322,8.562,5.158,8.527,4.975,8.516C4.791,8.505,4.607,8.5,4.426,8.5H4.039V7.069z"/>
		<path fill="#FFFFFF" d="M11.398,10.227H8V8.84L11.178,4h1.805v4.84h1.002v1.386h-1.002v1.562h-1.584V10.227z M11.398,6.157h-0.021
			L9.65,8.84h1.748V6.157z"/>
	</g>
</g>
</svg>
