<?xml version="1.0" encoding="utf-8"?>
<!-- Generator: Adobe Illustrator 16.0.4, SVG Export Plug-In . SVG Version: 6.00 Build 0)  -->
<!DOCTYPE svg PUBLIC "-//W3C//DTD SVG 1.1//EN" "http://www.w3.org/Graphics/SVG/1.1/DTD/svg11.dtd">
<svg version="1.1" id="Layer_1" xmlns="http://www.w3.org/2000/svg" xmlns:xlink="http://www.w3.org/1999/xlink" x="0px" y="0px"
	 width="16px" height="25px" viewBox="0 0 16 25" enable-background="new 0 0 16 25" xml:space="preserve">
<g id="Succeed">
</g>
<g id="Succeed_1_">
</g>
<path fill="#7400B8" d="M16,8c0-4.418-3.582-8-8-8S0,3.582,0,8c0,4.079,3.055,7.438,7,7.931V25h2v-9.069
	C12.945,15.438,16,12.079,16,8z"/>
<g>
	<path fill="#FFFFFF" d="M7.916,6.788c0.096-0.024,0.192-0.044,0.288-0.06C8.3,6.712,8.4,6.704,8.504,6.704
		c0.4,0,0.764,0.072,1.092,0.216s0.608,0.34,0.84,0.588c0.232,0.249,0.412,0.542,0.54,0.882s0.192,0.702,0.192,1.086
		c0,0.44-0.082,0.838-0.246,1.194c-0.164,0.356-0.388,0.662-0.672,0.918c-0.284,0.256-0.62,0.454-1.008,0.594
		c-0.388,0.14-0.802,0.21-1.242,0.21c-0.448,0-0.864-0.07-1.248-0.21c-0.384-0.14-0.718-0.338-1.002-0.594
		c-0.284-0.256-0.508-0.562-0.672-0.918S4.832,9.916,4.832,9.476c0-0.304,0.028-0.582,0.084-0.834s0.13-0.49,0.222-0.714
		c0.092-0.224,0.2-0.438,0.324-0.642c0.124-0.204,0.253-0.414,0.39-0.63l1.86-2.904h2.196L7.916,6.788z M9.368,9.404
		c0-0.384-0.126-0.702-0.378-0.954S8.408,8.072,8,8.072c-0.408,0-0.738,0.126-0.99,0.378S6.632,9.02,6.632,9.404
		c0,0.384,0.126,0.702,0.378,0.954S7.592,10.736,8,10.736c0.408,0,0.738-0.126,0.99-0.378S9.368,9.788,9.368,9.404z"/>
</g>
</svg>
