<?xml version="1.0" encoding="utf-8"?>
<!-- Generator: Adobe Illustrator 16.0.4, SVG Export Plug-In . SVG Version: 6.00 Build 0)  -->
<!DOCTYPE svg PUBLIC "-//W3C//DTD SVG 1.1//EN" "http://www.w3.org/Graphics/SVG/1.1/DTD/svg11.dtd">
<svg version="1.1" id="Layer_1" xmlns="http://www.w3.org/2000/svg" xmlns:xlink="http://www.w3.org/1999/xlink" x="0px" y="0px"
	 width="16px" height="25px" viewBox="0 0 16 25" enable-background="new 0 0 16 25" xml:space="preserve">
<g id="Succeed">
</g>
<g id="Succeed_1_">
</g>
<path fill="#FC5B00" d="M16,8c0-4.418-3.582-8-8-8S0,3.582,0,8c0,4.079,3.055,7.438,7,7.931V25h2v-9.069
	C12.945,15.438,16,12.079,16,8z"/>
<g>
	<g>
		<path fill="#FFFFFF" d="M5.141,10.227H1.742V8.84L4.921,4h1.804v4.84h1.002v1.386H6.725v1.562H5.141V10.227z M5.141,6.157H5.119
			L3.393,8.84h1.748V6.157z"/>
		<path fill="#FFFFFF" d="M8.199,6.014c0-0.359,0.067-0.673,0.203-0.94s0.322-0.491,0.561-0.671C9.201,4.223,9.479,4.088,9.794,4
			s0.652-0.132,1.012-0.132S11.502,3.913,11.818,4c0.314,0.088,0.59,0.222,0.824,0.401c0.234,0.18,0.422,0.404,0.561,0.671
			c0.141,0.268,0.209,0.581,0.209,0.94c0,0.425-0.115,0.788-0.346,1.089s-0.556,0.513-0.974,0.638v0.022
			c0.47,0.125,0.829,0.35,1.078,0.676c0.249,0.327,0.374,0.731,0.374,1.216c0,0.374-0.075,0.704-0.226,0.99
			s-0.353,0.522-0.604,0.709c-0.254,0.187-0.545,0.328-0.875,0.423s-0.675,0.143-1.034,0.143s-0.704-0.048-1.034-0.143
			s-0.621-0.236-0.874-0.423s-0.455-0.423-0.604-0.709c-0.15-0.286-0.227-0.616-0.227-0.99c0-0.484,0.125-0.889,0.375-1.216
			C8.689,8.113,9.049,7.887,9.52,7.763V7.741C9.101,7.616,8.776,7.403,8.545,7.103C8.314,6.802,8.199,6.439,8.199,6.014z
			 M9.717,9.423c0,0.271,0.1,0.502,0.297,0.693c0.198,0.19,0.462,0.286,0.792,0.286s0.595-0.095,0.792-0.286
			c0.198-0.191,0.297-0.422,0.297-0.693c0-0.278-0.099-0.513-0.297-0.704c-0.197-0.191-0.462-0.286-0.792-0.286
			s-0.594,0.095-0.792,0.286C9.816,8.91,9.717,9.145,9.717,9.423z M9.849,6.245c0,0.242,0.089,0.447,0.265,0.616
			c0.176,0.169,0.406,0.253,0.692,0.253s0.517-0.084,0.693-0.253c0.176-0.168,0.264-0.374,0.264-0.616
			c0-0.235-0.088-0.436-0.264-0.605c-0.177-0.168-0.407-0.253-0.693-0.253s-0.517,0.084-0.692,0.253
			C9.938,5.809,9.849,6.01,9.849,6.245z"/>
	</g>
</g>
</svg>
