<?xml version="1.0" encoding="utf-8"?>
<!-- Generator: Adobe Illustrator 16.0.4, SVG Export Plug-In . SVG Version: 6.00 Build 0)  -->
<!DOCTYPE svg PUBLIC "-//W3C//DTD SVG 1.1//EN" "http://www.w3.org/Graphics/SVG/1.1/DTD/svg11.dtd">
<svg version="1.1" id="Layer_1" xmlns="http://www.w3.org/2000/svg" xmlns:xlink="http://www.w3.org/1999/xlink" x="0px" y="0px"
	 width="16px" height="25px" viewBox="0 0 16 25" enable-background="new 0 0 16 25" xml:space="preserve">
<g id="Succeed">
</g>
<g id="Succeed_1_">
</g>
<path fill="#FC5B00" d="M16,8c0-4.418-3.582-8-8-8S0,3.582,0,8c0,4.079,3.055,7.438,7,7.931V25h2v-9.069
	C12.945,15.438,16,12.079,16,8z"/>
<g>
	<path fill="#FFFFFF" d="M7.154,7.1h0.588c0.168,0,0.332-0.012,0.492-0.036s0.306-0.07,0.438-0.138
		C8.804,6.858,8.91,6.762,8.99,6.638c0.08-0.124,0.12-0.286,0.12-0.486c0-0.256-0.102-0.468-0.306-0.636
		C8.6,5.348,8.35,5.264,8.054,5.264c-0.28,0-0.512,0.076-0.696,0.228s-0.304,0.34-0.36,0.564l-1.98-0.408
		C5.114,5.28,5.258,4.966,5.45,4.706c0.192-0.26,0.42-0.47,0.684-0.63c0.264-0.16,0.558-0.278,0.882-0.354
		C7.34,3.646,7.682,3.608,8.042,3.608c0.376,0,0.738,0.046,1.086,0.138s0.654,0.236,0.918,0.432c0.264,0.196,0.474,0.442,0.63,0.738
		c0.156,0.296,0.234,0.648,0.234,1.056c0,0.472-0.125,0.876-0.372,1.212C10.29,7.52,9.93,7.736,9.458,7.832v0.036
		C9.714,7.9,9.94,7.976,10.136,8.096c0.196,0.12,0.362,0.268,0.498,0.444c0.136,0.176,0.24,0.376,0.312,0.6
		c0.072,0.224,0.108,0.46,0.108,0.708c0,0.424-0.083,0.796-0.246,1.116c-0.164,0.32-0.384,0.586-0.66,0.798s-0.6,0.37-0.972,0.474
		c-0.372,0.104-0.766,0.156-1.182,0.156c-0.76,0-1.414-0.176-1.962-0.528c-0.548-0.352-0.91-0.908-1.086-1.668l1.896-0.444
		c0.064,0.304,0.194,0.544,0.39,0.72c0.196,0.176,0.486,0.264,0.87,0.264c0.392,0,0.682-0.102,0.87-0.306
		c0.188-0.204,0.282-0.466,0.282-0.786c0-0.24-0.05-0.426-0.15-0.558c-0.1-0.132-0.23-0.23-0.39-0.294s-0.34-0.102-0.54-0.114
		c-0.2-0.012-0.4-0.018-0.6-0.018h-0.42V7.1z"/>
</g>
</svg>
