<?xml version="1.0" encoding="utf-8"?>
<!-- Generator: Adobe Illustrator 16.0.4, SVG Export Plug-In . SVG Version: 6.00 Build 0)  -->
<!DOCTYPE svg PUBLIC "-//W3C//DTD SVG 1.1//EN" "http://www.w3.org/Graphics/SVG/1.1/DTD/svg11.dtd">
<svg version="1.1" id="Layer_1" xmlns="http://www.w3.org/2000/svg" xmlns:xlink="http://www.w3.org/1999/xlink" x="0px" y="0px"
	 width="16px" height="25px" viewBox="0 0 16 25" enable-background="new 0 0 16 25" xml:space="preserve">
<g id="Succeed">
</g>
<g id="Succeed_1_">
</g>
<path fill="#FF9500" d="M16,8c0-4.418-3.582-8-8-8S0,3.582,0,8c0,4.079,3.055,7.438,7,7.931V25h2v-9.069
	C12.945,15.438,16,12.079,16,8z"/>
<g>
	<g>
		<path fill="#FFFFFF" d="M4.095,7.069h0.539c0.154,0,0.305-0.011,0.451-0.033S5.366,6.973,5.487,6.91s0.218-0.15,0.291-0.264
			s0.109-0.262,0.109-0.445c0-0.235-0.093-0.429-0.279-0.583C5.421,5.463,5.191,5.387,4.921,5.387c-0.258,0-0.471,0.07-0.639,0.209
			c-0.169,0.139-0.279,0.312-0.33,0.517L2.138,5.739c0.088-0.337,0.22-0.625,0.396-0.864C2.71,4.637,2.919,4.444,3.16,4.297
			c0.242-0.146,0.512-0.254,0.809-0.324s0.61-0.104,0.94-0.104c0.345,0,0.677,0.042,0.996,0.126c0.318,0.084,0.6,0.216,0.841,0.396
			c0.242,0.18,0.435,0.405,0.577,0.676c0.144,0.271,0.215,0.594,0.215,0.968c0,0.433-0.113,0.803-0.341,1.111
			S6.64,7.652,6.207,7.741v0.033c0.235,0.029,0.442,0.099,0.622,0.209c0.18,0.11,0.332,0.246,0.456,0.407s0.22,0.345,0.286,0.55
			c0.066,0.206,0.1,0.422,0.1,0.649c0,0.389-0.076,0.73-0.227,1.023c-0.15,0.293-0.352,0.537-0.604,0.731s-0.55,0.339-0.892,0.434
			c-0.34,0.095-0.701,0.143-1.083,0.143c-0.696,0-1.296-0.161-1.798-0.484c-0.503-0.323-0.835-0.832-0.996-1.529L3.81,9.5
			C3.868,9.779,3.987,10,4.167,10.161s0.445,0.242,0.797,0.242c0.359,0,0.625-0.093,0.798-0.28s0.259-0.427,0.259-0.721
			c0-0.22-0.047-0.39-0.138-0.511c-0.092-0.121-0.211-0.211-0.357-0.27C5.378,8.562,5.214,8.527,5.03,8.516
			C4.847,8.505,4.663,8.5,4.48,8.5H4.095V7.069z"/>
		<path fill="#FFFFFF" d="M10.948,6.784c0.088-0.022,0.176-0.041,0.264-0.055s0.18-0.022,0.275-0.022c0.366,0,0.699,0.066,1,0.198
			c0.301,0.132,0.559,0.312,0.771,0.539c0.213,0.228,0.378,0.497,0.495,0.809c0.117,0.312,0.176,0.644,0.176,0.996
			c0,0.403-0.075,0.768-0.225,1.095c-0.15,0.326-0.356,0.606-0.617,0.841c-0.26,0.235-0.568,0.417-0.924,0.544
			c-0.355,0.128-0.734,0.192-1.139,0.192c-0.41,0-0.791-0.064-1.144-0.192c-0.353-0.128-0.658-0.31-0.919-0.544
			c-0.26-0.235-0.465-0.515-0.615-0.841c-0.15-0.327-0.226-0.691-0.226-1.095c0-0.279,0.025-0.534,0.077-0.765
			c0.051-0.231,0.119-0.449,0.203-0.654C8.485,7.624,8.585,7.427,8.698,7.24s0.232-0.38,0.357-0.578L10.761,4h2.014L10.948,6.784z
			 M12.278,9.182c0-0.352-0.115-0.644-0.346-0.875S11.399,7.96,11.024,7.96c-0.373,0-0.676,0.116-0.906,0.347
			C9.887,8.538,9.771,8.83,9.771,9.182s0.116,0.644,0.348,0.875c0.23,0.231,0.533,0.346,0.906,0.346
			c0.375,0,0.678-0.115,0.908-0.346S12.278,9.534,12.278,9.182z"/>
	</g>
</g>
</svg>
