<?xml version="1.0" encoding="utf-8"?>
<!-- Generator: Adobe Illustrator 16.0.4, SVG Export Plug-In . SVG Version: 6.00 Build 0)  -->
<!DOCTYPE svg PUBLIC "-//W3C//DTD SVG 1.1//EN" "http://www.w3.org/Graphics/SVG/1.1/DTD/svg11.dtd">
<svg version="1.1" id="Layer_1" xmlns="http://www.w3.org/2000/svg" xmlns:xlink="http://www.w3.org/1999/xlink" x="0px" y="0px"
	 width="16px" height="25px" viewBox="0 0 16 25" enable-background="new 0 0 16 25" xml:space="preserve">
<g id="Succeed">
</g>
<g id="Succeed_1_">
</g>
<path fill="#0077CF" d="M16,8c0-4.418-3.582-8-8-8S0,3.582,0,8c0,4.079,3.055,7.438,7,7.931V25h2v-9.069
	C12.945,15.438,16,12.079,16,8z"/>
<g>
	<path fill="#FFFFFF" d="M4.689,5.849L3.128,7.224L2.192,6.146L4.733,4h1.54v7.788H4.689V5.849z"/>
	<path fill="#FFFFFF" d="M10.509,9.005c-0.088,0.022-0.176,0.041-0.265,0.055c-0.088,0.015-0.18,0.022-0.274,0.022
		c-0.367,0-0.701-0.066-1.002-0.198c-0.301-0.132-0.557-0.312-0.77-0.539C7.985,8.118,7.82,7.849,7.703,7.537
		S7.527,6.894,7.527,6.542c0-0.403,0.075-0.768,0.226-1.094S8.108,4.84,8.368,4.605c0.261-0.234,0.567-0.416,0.919-0.544
		c0.353-0.128,0.733-0.192,1.144-0.192c0.404,0,0.783,0.064,1.139,0.192s0.664,0.31,0.924,0.544
		c0.261,0.235,0.467,0.516,0.617,0.842s0.225,0.691,0.225,1.094c0,0.279-0.025,0.534-0.076,0.765
		c-0.052,0.231-0.119,0.449-0.204,0.654c-0.085,0.206-0.183,0.402-0.297,0.589c-0.114,0.187-0.233,0.379-0.357,0.577l-1.705,2.662
		H8.683L10.509,9.005z M9.177,6.607c0,0.352,0.116,0.644,0.348,0.875c0.23,0.231,0.533,0.347,0.906,0.347
		c0.375,0,0.678-0.116,0.908-0.347s0.347-0.522,0.347-0.875s-0.116-0.644-0.347-0.875s-0.533-0.346-0.908-0.346
		c-0.373,0-0.676,0.115-0.906,0.346C9.293,5.964,9.177,6.255,9.177,6.607z"/>
</g>
</svg>
