<?xml version="1.0" encoding="utf-8"?>
<!-- Generator: Adobe Illustrator 16.0.4, SVG Export Plug-In . SVG Version: 6.00 Build 0)  -->
<!DOCTYPE svg PUBLIC "-//W3C//DTD SVG 1.1//EN" "http://www.w3.org/Graphics/SVG/1.1/DTD/svg11.dtd">
<svg version="1.1" id="Layer_1" xmlns="http://www.w3.org/2000/svg" xmlns:xlink="http://www.w3.org/1999/xlink" x="0px" y="0px"
	 width="16px" height="25px" viewBox="0 0 16 25" enable-background="new 0 0 16 25" xml:space="preserve">
<g id="Succeed">
</g>
<g id="Succeed_1_">
</g>
<path fill="#00C9BC" d="M16,8c0-4.418-3.582-8-8-8S0,3.582,0,8c0,4.079,3.055,7.438,7,7.931V25h2v-9.069
	C12.945,15.438,16,12.079,16,8z"/>
<g>
	<g>
		<path fill="#FFFFFF" d="M4.166,7.069h0.539c0.154,0,0.305-0.011,0.451-0.033S5.438,6.973,5.559,6.91S5.776,6.76,5.85,6.646
			s0.109-0.262,0.109-0.445c0-0.235-0.093-0.429-0.279-0.583C5.492,5.463,5.263,5.387,4.992,5.387c-0.258,0-0.471,0.07-0.639,0.209
			c-0.169,0.139-0.279,0.312-0.33,0.517L2.209,5.739c0.088-0.337,0.22-0.625,0.396-0.864C2.781,4.637,2.99,4.444,3.231,4.297
			C3.474,4.151,3.743,4.043,4.04,3.973s0.61-0.104,0.94-0.104c0.345,0,0.677,0.042,0.996,0.126c0.318,0.084,0.6,0.216,0.841,0.396
			c0.242,0.18,0.435,0.405,0.577,0.676c0.144,0.271,0.215,0.594,0.215,0.968c0,0.433-0.113,0.803-0.341,1.111
			s-0.558,0.506-0.99,0.594v0.033C6.514,7.803,6.721,7.873,6.9,7.982c0.18,0.11,0.332,0.246,0.456,0.407s0.22,0.345,0.286,0.55
			c0.066,0.206,0.1,0.422,0.1,0.649c0,0.389-0.076,0.73-0.227,1.023c-0.15,0.293-0.352,0.537-0.604,0.731s-0.55,0.339-0.892,0.434
			c-0.34,0.095-0.701,0.143-1.083,0.143c-0.696,0-1.296-0.161-1.798-0.484c-0.503-0.323-0.835-0.832-0.996-1.529L3.881,9.5
			C3.939,9.779,4.059,10,4.238,10.161s0.445,0.242,0.797,0.242c0.359,0,0.625-0.093,0.798-0.28s0.259-0.427,0.259-0.721
			c0-0.22-0.047-0.39-0.138-0.511c-0.092-0.121-0.211-0.211-0.357-0.27C5.449,8.562,5.285,8.527,5.102,8.516
			C4.918,8.505,4.734,8.5,4.552,8.5H4.166V7.069z"/>
		<path fill="#FFFFFF" d="M8.512,6.014c0-0.359,0.067-0.673,0.203-0.94s0.322-0.491,0.561-0.671C9.514,4.223,9.791,4.088,10.106,4
			s0.652-0.132,1.012-0.132S11.814,3.913,12.131,4c0.314,0.088,0.59,0.222,0.824,0.401c0.234,0.18,0.422,0.404,0.561,0.671
			c0.141,0.268,0.209,0.581,0.209,0.94c0,0.425-0.115,0.788-0.346,1.089s-0.556,0.513-0.974,0.638v0.022
			c0.47,0.125,0.829,0.35,1.078,0.676c0.249,0.327,0.374,0.731,0.374,1.216c0,0.374-0.075,0.704-0.226,0.99
			s-0.353,0.522-0.604,0.709c-0.254,0.187-0.545,0.328-0.875,0.423s-0.675,0.143-1.034,0.143s-0.704-0.048-1.034-0.143
			s-0.621-0.236-0.874-0.423s-0.455-0.423-0.604-0.709c-0.15-0.286-0.227-0.616-0.227-0.99c0-0.484,0.125-0.889,0.375-1.216
			c0.248-0.326,0.607-0.552,1.078-0.676V7.741C9.413,7.616,9.089,7.403,8.857,7.103C8.627,6.802,8.512,6.439,8.512,6.014z
			 M10.029,9.423c0,0.271,0.1,0.502,0.297,0.693c0.198,0.19,0.462,0.286,0.792,0.286s0.595-0.095,0.792-0.286
			c0.198-0.191,0.297-0.422,0.297-0.693c0-0.278-0.099-0.513-0.297-0.704c-0.197-0.191-0.462-0.286-0.792-0.286
			s-0.594,0.095-0.792,0.286C10.129,8.91,10.029,9.145,10.029,9.423z M10.161,6.245c0,0.242,0.089,0.447,0.265,0.616
			c0.176,0.169,0.406,0.253,0.692,0.253s0.517-0.084,0.693-0.253c0.176-0.168,0.264-0.374,0.264-0.616
			c0-0.235-0.088-0.436-0.264-0.605c-0.177-0.168-0.407-0.253-0.693-0.253s-0.517,0.084-0.692,0.253
			C10.25,5.809,10.161,6.01,10.161,6.245z"/>
	</g>
</g>
</svg>
