<?xml version="1.0" encoding="utf-8"?>
<!-- Generator: Adobe Illustrator 16.0.4, SVG Export Plug-In . SVG Version: 6.00 Build 0)  -->
<!DOCTYPE svg PUBLIC "-//W3C//DTD SVG 1.1//EN" "http://www.w3.org/Graphics/SVG/1.1/DTD/svg11.dtd">
<svg version="1.1" id="Layer_1" xmlns="http://www.w3.org/2000/svg" xmlns:xlink="http://www.w3.org/1999/xlink" x="0px" y="0px"
	 width="16px" height="25px" viewBox="0 0 16 25" enable-background="new 0 0 16 25" xml:space="preserve">
<g id="Succeed">
</g>
<g id="Succeed_1_">
</g>
<path fill="#FF9500" d="M16,8c0-4.418-3.582-8-8-8S0,3.582,0,8c0,4.079,3.055,7.438,7,7.931V25h2v-9.069
	C12.945,15.438,16,12.079,16,8z"/>
<g>
	<g>
		<path fill="#FFFFFF" d="M2.224,10.04l3.025-2.717C5.401,7.184,5.556,7.025,5.71,6.85c0.154-0.176,0.23-0.381,0.23-0.616
			c0-0.264-0.094-0.471-0.285-0.621S5.241,5.387,4.983,5.387c-0.307,0-0.547,0.095-0.719,0.286c-0.174,0.191-0.27,0.426-0.293,0.704
			L2.323,6.255c0.021-0.403,0.105-0.753,0.252-1.05s0.342-0.544,0.584-0.743c0.24-0.198,0.525-0.346,0.852-0.445
			s0.68-0.148,1.062-0.148c0.352,0,0.682,0.049,0.988,0.148c0.309,0.099,0.576,0.246,0.805,0.44
			c0.227,0.194,0.404,0.438,0.533,0.731c0.127,0.293,0.191,0.634,0.191,1.023c0,0.25-0.025,0.475-0.076,0.677S7.392,7.273,7.3,7.438
			S7.101,7.755,6.976,7.895c-0.125,0.14-0.26,0.275-0.408,0.407l-2.363,2.035h3.453v1.452H2.224V10.04z"/>
		<path fill="#FFFFFF" d="M11.419,10.227H8.021V8.84L11.198,4h1.805v4.84h1.002v1.386h-1.002v1.562h-1.584V10.227z M11.419,6.157
			h-0.021L9.671,8.84h1.748V6.157z"/>
	</g>
</g>
</svg>
