<?xml version="1.0" encoding="utf-8"?>
<!-- Generator: Adobe Illustrator 16.0.4, SVG Export Plug-In . SVG Version: 6.00 Build 0)  -->
<!DOCTYPE svg PUBLIC "-//W3C//DTD SVG 1.1//EN" "http://www.w3.org/Graphics/SVG/1.1/DTD/svg11.dtd">
<svg version="1.1" id="Layer_1" xmlns="http://www.w3.org/2000/svg" xmlns:xlink="http://www.w3.org/1999/xlink" x="0px" y="0px"
	 width="16px" height="25px" viewBox="0 0 16 25" enable-background="new 0 0 16 25" xml:space="preserve">
<g id="Succeed">
</g>
<g id="Succeed_1_">
</g>
<path fill="#61AB00" d="M16,8c0-4.418-3.582-8-8-8S0,3.582,0,8c0,4.079,3.055,7.438,7,7.931V25h2v-9.069
	C12.945,15.438,16,12.079,16,8z"/>
<g>
	<g>
		<path fill="#FFFFFF" d="M4.188,7.069h0.539c0.154,0,0.305-0.011,0.451-0.033S5.459,6.973,5.58,6.91s0.219-0.15,0.291-0.264
			C5.945,6.532,5.98,6.384,5.98,6.201c0-0.235-0.092-0.429-0.279-0.583C5.514,5.463,5.285,5.387,5.014,5.387
			c-0.258,0-0.471,0.07-0.639,0.209s-0.279,0.312-0.33,0.517L2.23,5.739c0.088-0.337,0.221-0.625,0.396-0.864
			s0.385-0.431,0.627-0.578c0.242-0.146,0.512-0.254,0.809-0.324s0.609-0.104,0.939-0.104c0.346,0,0.678,0.042,0.996,0.126
			s0.6,0.216,0.842,0.396s0.434,0.405,0.576,0.676c0.145,0.271,0.215,0.594,0.215,0.968c0,0.433-0.113,0.803-0.34,1.111
			c-0.229,0.308-0.559,0.506-0.99,0.594v0.033c0.234,0.029,0.441,0.099,0.621,0.209c0.18,0.11,0.332,0.246,0.457,0.407
			c0.123,0.161,0.219,0.345,0.285,0.55c0.066,0.206,0.1,0.422,0.1,0.649c0,0.389-0.076,0.73-0.227,1.023
			c-0.15,0.293-0.352,0.537-0.604,0.731c-0.254,0.194-0.551,0.339-0.893,0.434c-0.34,0.095-0.701,0.143-1.082,0.143
			c-0.697,0-1.297-0.161-1.799-0.484s-0.834-0.832-0.996-1.529L3.902,9.5C3.961,9.779,4.08,10,4.26,10.161s0.445,0.242,0.797,0.242
			c0.359,0,0.625-0.093,0.799-0.28c0.172-0.187,0.258-0.427,0.258-0.721c0-0.22-0.047-0.39-0.137-0.511
			c-0.092-0.121-0.211-0.211-0.357-0.27C5.471,8.562,5.307,8.527,5.123,8.516C4.939,8.505,4.756,8.5,4.574,8.5H4.188V7.069z"/>
		<path fill="#FFFFFF" d="M10.26,7.069h0.539c0.154,0,0.305-0.011,0.451-0.033s0.281-0.064,0.402-0.126s0.217-0.15,0.291-0.264
			c0.072-0.114,0.109-0.262,0.109-0.445c0-0.235-0.094-0.429-0.279-0.583c-0.188-0.154-0.418-0.231-0.688-0.231
			c-0.258,0-0.471,0.07-0.639,0.209c-0.17,0.139-0.279,0.312-0.33,0.517L8.303,5.739c0.088-0.337,0.219-0.625,0.395-0.864
			c0.178-0.238,0.387-0.431,0.627-0.578c0.242-0.146,0.512-0.254,0.809-0.324s0.611-0.104,0.941-0.104
			c0.344,0,0.676,0.042,0.996,0.126c0.318,0.084,0.6,0.216,0.84,0.396c0.242,0.18,0.436,0.405,0.578,0.676
			c0.143,0.271,0.215,0.594,0.215,0.968c0,0.433-0.113,0.803-0.342,1.111c-0.227,0.308-0.557,0.506-0.99,0.594v0.033
			c0.236,0.029,0.443,0.099,0.623,0.209c0.18,0.11,0.332,0.246,0.455,0.407c0.125,0.161,0.221,0.345,0.287,0.55
			c0.066,0.206,0.1,0.422,0.1,0.649c0,0.389-0.076,0.73-0.227,1.023c-0.15,0.293-0.352,0.537-0.605,0.731
			c-0.252,0.194-0.549,0.339-0.891,0.434c-0.34,0.095-0.701,0.143-1.084,0.143c-0.695,0-1.295-0.161-1.797-0.484
			c-0.504-0.323-0.836-0.832-0.996-1.529L9.975,9.5c0.059,0.279,0.178,0.499,0.357,0.66s0.445,0.242,0.797,0.242
			c0.359,0,0.625-0.093,0.797-0.28c0.174-0.187,0.26-0.427,0.26-0.721c0-0.22-0.047-0.39-0.139-0.511s-0.211-0.211-0.357-0.27
			s-0.311-0.094-0.494-0.104C11.012,8.505,10.828,8.5,10.645,8.5H10.26V7.069z"/>
	</g>
</g>
</svg>
