<?xml version="1.0" encoding="utf-8"?>
<!-- Generator: Adobe Illustrator 16.0.4, SVG Export Plug-In . SVG Version: 6.00 Build 0)  -->
<!DOCTYPE svg PUBLIC "-//W3C//DTD SVG 1.1//EN" "http://www.w3.org/Graphics/SVG/1.1/DTD/svg11.dtd">
<svg version="1.1" id="Layer_1" xmlns="http://www.w3.org/2000/svg" xmlns:xlink="http://www.w3.org/1999/xlink" x="0px" y="0px"
	 width="16px" height="25px" viewBox="0 0 16 25" enable-background="new 0 0 16 25" xml:space="preserve">
<g id="Succeed">
</g>
<g id="Succeed_1_">
</g>
<path fill="#FF9500" d="M16,8c0-4.418-3.582-8-8-8S0,3.582,0,8c0,4.079,3.055,7.438,7,7.931V25h2v-9.069
	C12.945,15.438,16,12.079,16,8z"/>
<g>
	<path fill="#FFFFFF" d="M4.586,7.069h0.539c0.154,0,0.305-0.011,0.451-0.033S5.857,6.973,5.979,6.91S6.197,6.76,6.27,6.646
		c0.074-0.114,0.109-0.262,0.109-0.445c0-0.235-0.092-0.429-0.279-0.583C5.912,5.463,5.684,5.387,5.412,5.387
		c-0.258,0-0.471,0.07-0.639,0.209s-0.279,0.312-0.33,0.517L2.629,5.739C2.717,5.401,2.85,5.113,3.025,4.875S3.41,4.444,3.652,4.297
		c0.242-0.146,0.512-0.254,0.809-0.324S5.07,3.869,5.4,3.869c0.346,0,0.678,0.042,0.996,0.126s0.6,0.216,0.842,0.396
		s0.434,0.405,0.576,0.676c0.145,0.271,0.215,0.594,0.215,0.968c0,0.433-0.113,0.803-0.34,1.111
		c-0.229,0.308-0.559,0.506-0.99,0.594v0.033C6.934,7.803,7.141,7.873,7.32,7.982C7.5,8.093,7.652,8.229,7.777,8.39
		C7.9,8.551,7.996,8.734,8.062,8.939c0.066,0.206,0.1,0.422,0.1,0.649c0,0.389-0.076,0.73-0.227,1.023
		c-0.15,0.293-0.352,0.537-0.604,0.731c-0.254,0.194-0.551,0.339-0.893,0.434C6.1,11.873,5.738,11.92,5.357,11.92
		c-0.697,0-1.297-0.161-1.799-0.484s-0.834-0.832-0.996-1.529L4.301,9.5C4.359,9.779,4.479,10,4.658,10.161s0.445,0.242,0.797,0.242
		c0.359,0,0.625-0.093,0.799-0.28c0.172-0.187,0.258-0.427,0.258-0.721c0-0.22-0.047-0.39-0.137-0.511
		c-0.092-0.121-0.211-0.211-0.357-0.27C5.869,8.562,5.705,8.527,5.521,8.516C5.338,8.505,5.154,8.5,4.973,8.5H4.586V7.069z"/>
	<path fill="#FFFFFF" d="M11.01,5.849L9.449,7.224L8.514,6.146L11.055,4h1.539v7.788H11.01V5.849z"/>
</g>
</svg>
