<?xml version="1.0" encoding="utf-8"?>
<!-- Generator: Adobe Illustrator 16.0.4, SVG Export Plug-In . SVG Version: 6.00 Build 0)  -->
<!DOCTYPE svg PUBLIC "-//W3C//DTD SVG 1.1//EN" "http://www.w3.org/Graphics/SVG/1.1/DTD/svg11.dtd">
<svg version="1.1" id="Layer_1" xmlns="http://www.w3.org/2000/svg" xmlns:xlink="http://www.w3.org/1999/xlink" x="0px" y="0px"
	 width="16px" height="25px" viewBox="0 0 16 25" enable-background="new 0 0 16 25" xml:space="preserve">
<g id="Succeed">
</g>
<g id="Succeed_1_">
</g>
<path fill="#7400B8" d="M16,8c0-4.418-3.582-8-8-8S0,3.582,0,8c0,4.079,3.055,7.438,7,7.931V25h2v-9.069
	C12.945,15.438,16,12.079,16,8z"/>
<g>
	<g>
		<path fill="#FFFFFF" d="M4.068,7.069h0.539c0.154,0,0.305-0.011,0.451-0.033S5.34,6.973,5.461,6.91S5.68,6.76,5.752,6.646
			c0.074-0.114,0.109-0.262,0.109-0.445c0-0.235-0.092-0.429-0.279-0.583C5.395,5.463,5.166,5.387,4.895,5.387
			c-0.258,0-0.471,0.07-0.639,0.209s-0.279,0.312-0.33,0.517L2.111,5.739c0.088-0.337,0.221-0.625,0.396-0.864
			s0.385-0.431,0.627-0.578c0.242-0.146,0.512-0.254,0.809-0.324s0.609-0.104,0.939-0.104c0.346,0,0.678,0.042,0.996,0.126
			s0.6,0.216,0.842,0.396s0.434,0.405,0.576,0.676c0.145,0.271,0.215,0.594,0.215,0.968c0,0.433-0.113,0.803-0.34,1.111
			c-0.229,0.308-0.559,0.506-0.99,0.594v0.033c0.234,0.029,0.441,0.099,0.621,0.209c0.18,0.11,0.332,0.246,0.457,0.407
			c0.123,0.161,0.219,0.345,0.285,0.55c0.066,0.206,0.1,0.422,0.1,0.649c0,0.389-0.076,0.73-0.227,1.023
			c-0.15,0.293-0.352,0.537-0.604,0.731c-0.254,0.194-0.551,0.339-0.893,0.434c-0.34,0.095-0.701,0.143-1.082,0.143
			c-0.697,0-1.297-0.161-1.799-0.484s-0.834-0.832-0.996-1.529L3.783,9.5C3.842,9.779,3.961,10,4.141,10.161
			s0.445,0.242,0.797,0.242c0.359,0,0.625-0.093,0.799-0.28c0.172-0.187,0.258-0.427,0.258-0.721c0-0.22-0.047-0.39-0.137-0.511
			C5.766,8.769,5.646,8.679,5.5,8.621C5.352,8.562,5.188,8.527,5.004,8.516C4.82,8.505,4.637,8.5,4.455,8.5H4.068V7.069z"/>
		<path fill="#FFFFFF" d="M13.451,5.453h-3.09l-0.033,1.199c0.168-0.059,0.398-0.088,0.693-0.088c0.395,0,0.758,0.059,1.088,0.176
			s0.615,0.288,0.854,0.511c0.238,0.224,0.424,0.495,0.555,0.814c0.133,0.319,0.199,0.677,0.199,1.073
			c0,0.44-0.076,0.832-0.227,1.177s-0.357,0.636-0.621,0.875s-0.578,0.42-0.941,0.544c-0.363,0.125-0.756,0.187-1.182,0.187
			c-0.676,0-1.24-0.165-1.693-0.495c-0.455-0.33-0.768-0.829-0.936-1.496l1.727-0.396c0.045,0.279,0.162,0.504,0.352,0.676
			c0.191,0.172,0.43,0.259,0.715,0.259c0.354,0,0.633-0.11,0.842-0.33c0.209-0.22,0.314-0.499,0.314-0.836
			c0-0.257-0.055-0.468-0.16-0.633s-0.246-0.297-0.418-0.396c-0.172-0.099-0.365-0.167-0.578-0.203s-0.424-0.055-0.637-0.055
			c-0.271,0-0.545,0.026-0.82,0.077S8.912,8.213,8.656,8.302L8.744,4h4.707V5.453z"/>
	</g>
</g>
</svg>
