<?xml version="1.0" encoding="utf-8"?>
<!-- Generator: Adobe Illustrator 16.0.4, SVG Export Plug-In . SVG Version: 6.00 Build 0)  -->
<!DOCTYPE svg PUBLIC "-//W3C//DTD SVG 1.1//EN" "http://www.w3.org/Graphics/SVG/1.1/DTD/svg11.dtd">
<svg version="1.1" id="Layer_1" xmlns="http://www.w3.org/2000/svg" xmlns:xlink="http://www.w3.org/1999/xlink" x="0px" y="0px"
	 width="16px" height="25px" viewBox="0 0 16 25" enable-background="new 0 0 16 25" xml:space="preserve">
<g id="Succeed">
</g>
<g id="Succeed_1_">
</g>
<path fill="#FC5B00" d="M16,8c0-4.418-3.582-8-8-8S0,3.582,0,8c0,4.079,3.055,7.438,7,7.931V25h2v-9.069
	C12.945,15.438,16,12.079,16,8z"/>
<g>
	<path fill="#FFFFFF" d="M4.671,5.849L3.109,7.224L2.174,6.146L4.715,4h1.54v7.788H4.671V5.849z"/>
	<path fill="#FFFFFF" d="M7.783,6.014c0-0.359,0.068-0.673,0.204-0.94s0.323-0.491,0.562-0.671C8.787,4.223,9.063,4.088,9.379,4
		c0.314-0.088,0.652-0.132,1.012-0.132S11.088,3.913,11.402,4c0.315,0.088,0.591,0.222,0.825,0.401
		c0.235,0.18,0.422,0.404,0.562,0.671c0.139,0.268,0.209,0.581,0.209,0.94c0,0.425-0.115,0.788-0.347,1.089
		s-0.556,0.513-0.974,0.638v0.022c0.469,0.125,0.828,0.35,1.078,0.676c0.249,0.327,0.374,0.731,0.374,1.216
		c0,0.374-0.075,0.704-0.226,0.99s-0.352,0.522-0.605,0.709c-0.252,0.187-0.544,0.328-0.874,0.423s-0.675,0.143-1.034,0.143
		s-0.704-0.048-1.033-0.143c-0.33-0.095-0.622-0.236-0.875-0.423s-0.455-0.423-0.605-0.709s-0.225-0.616-0.225-0.99
		c0-0.484,0.124-0.889,0.373-1.216c0.25-0.326,0.609-0.552,1.078-0.676V7.741C8.686,7.616,8.361,7.403,8.131,7.103
		C7.899,6.802,7.783,6.439,7.783,6.014z M9.302,9.423c0,0.271,0.099,0.502,0.297,0.693c0.198,0.19,0.462,0.286,0.792,0.286
		s0.594-0.095,0.792-0.286c0.198-0.191,0.298-0.422,0.298-0.693c0-0.278-0.1-0.513-0.298-0.704
		c-0.198-0.191-0.462-0.286-0.792-0.286S9.797,8.529,9.599,8.72C9.4,8.91,9.302,9.145,9.302,9.423z M9.434,6.245
		c0,0.242,0.088,0.447,0.264,0.616c0.176,0.169,0.408,0.253,0.693,0.253c0.286,0,0.518-0.084,0.693-0.253
		c0.176-0.168,0.264-0.374,0.264-0.616c0-0.235-0.088-0.436-0.264-0.605c-0.176-0.168-0.407-0.253-0.693-0.253
		c-0.285,0-0.518,0.084-0.693,0.253C9.521,5.809,9.434,6.01,9.434,6.245z"/>
</g>
</svg>
