<?xml version="1.0" encoding="utf-8"?>
<!-- Generator: Adobe Illustrator 16.0.4, SVG Export Plug-In . SVG Version: 6.00 Build 0)  -->
<!DOCTYPE svg PUBLIC "-//W3C//DTD SVG 1.1//EN" "http://www.w3.org/Graphics/SVG/1.1/DTD/svg11.dtd">
<svg version="1.1" id="Layer_1" xmlns="http://www.w3.org/2000/svg" xmlns:xlink="http://www.w3.org/1999/xlink" x="0px" y="0px"
	 width="16px" height="25px" viewBox="0 0 16 25" enable-background="new 0 0 16 25" xml:space="preserve">
<g id="Succeed">
</g>
<g id="Succeed_1_">
</g>
<path fill="#61AB00" d="M16,8c0-4.418-3.582-8-8-8C3.582,0,0,3.582,0,8c0,4.079,3.055,7.438,7,7.931V25h2v-9.069
	C12.945,15.438,16,12.079,16,8z"/>
<g>
	<path fill="#FFFFFF" d="M5.156,5.948c0-0.392,0.073-0.734,0.222-1.026C5.526,4.63,5.729,4.386,5.99,4.19
		c0.26-0.196,0.562-0.342,0.906-0.438C7.24,3.656,7.608,3.608,8,3.608s0.76,0.048,1.104,0.144c0.345,0.096,0.645,0.242,0.9,0.438
		c0.256,0.196,0.46,0.44,0.612,0.732c0.151,0.292,0.228,0.634,0.228,1.026c0,0.464-0.126,0.86-0.378,1.188S9.86,7.696,9.404,7.832
		v0.024c0.512,0.136,0.903,0.382,1.176,0.738c0.271,0.356,0.408,0.798,0.408,1.326c0,0.408-0.082,0.768-0.246,1.08
		s-0.384,0.57-0.66,0.774s-0.594,0.358-0.954,0.462C8.768,12.34,8.392,12.392,8,12.392s-0.768-0.052-1.128-0.156
		c-0.36-0.104-0.678-0.258-0.954-0.462S5.422,11.312,5.258,11s-0.246-0.672-0.246-1.08c0-0.528,0.136-0.97,0.408-1.326
		c0.271-0.356,0.664-0.602,1.176-0.738V7.832C6.14,7.696,5.786,7.464,5.534,7.136S5.156,6.412,5.156,5.948z M6.812,9.668
		c0,0.296,0.108,0.548,0.324,0.756C7.352,10.632,7.64,10.736,8,10.736s0.648-0.104,0.864-0.312c0.216-0.208,0.324-0.46,0.324-0.756
		c0-0.304-0.108-0.56-0.324-0.768C8.648,8.692,8.36,8.588,8,8.588S7.352,8.692,7.136,8.9C6.92,9.108,6.812,9.364,6.812,9.668z
		 M6.956,6.2c0,0.264,0.096,0.488,0.288,0.672C7.436,7.056,7.688,7.148,8,7.148s0.564-0.092,0.756-0.276
		C8.948,6.688,9.044,6.464,9.044,6.2c0-0.256-0.096-0.476-0.288-0.66C8.564,5.356,8.312,5.264,8,5.264S7.436,5.356,7.244,5.54
		C7.052,5.724,6.956,5.944,6.956,6.2z"/>
</g>
</svg>
