<?xml version="1.0" encoding="utf-8"?>
<!-- Generator: Adobe Illustrator 16.0.4, SVG Export Plug-In . SVG Version: 6.00 Build 0)  -->
<!DOCTYPE svg PUBLIC "-//W3C//DTD SVG 1.1//EN" "http://www.w3.org/Graphics/SVG/1.1/DTD/svg11.dtd">
<svg version="1.1" id="Layer_1" xmlns="http://www.w3.org/2000/svg" xmlns:xlink="http://www.w3.org/1999/xlink" x="0px" y="0px"
	 width="16px" height="25px" viewBox="0 0 16 25" enable-background="new 0 0 16 25" xml:space="preserve">
<g id="Succeed">
</g>
<g id="Succeed_1_">
</g>
<path fill="#7400B8" d="M16,8c0-4.418-3.582-8-8-8S0,3.582,0,8c0,4.079,3.055,7.438,7,7.931V25h2v-9.069
	C12.945,15.438,16,12.079,16,8z"/>
<g>
	<g>
		<path fill="#FFFFFF" d="M4.072,7.069h0.539c0.154,0,0.305-0.011,0.451-0.033S5.344,6.973,5.465,6.91s0.218-0.15,0.291-0.264
			s0.109-0.262,0.109-0.445c0-0.235-0.093-0.429-0.279-0.583C5.398,5.463,5.169,5.387,4.898,5.387c-0.258,0-0.471,0.07-0.639,0.209
			C4.091,5.735,3.98,5.907,3.93,6.113L2.115,5.739c0.088-0.337,0.22-0.625,0.396-0.864c0.177-0.238,0.386-0.431,0.627-0.578
			C3.38,4.151,3.649,4.043,3.946,3.973s0.61-0.104,0.94-0.104c0.345,0,0.677,0.042,0.996,0.126c0.318,0.084,0.6,0.216,0.841,0.396
			c0.242,0.18,0.435,0.405,0.577,0.676c0.144,0.271,0.215,0.594,0.215,0.968c0,0.433-0.113,0.803-0.341,1.111
			s-0.558,0.506-0.99,0.594v0.033C6.42,7.803,6.627,7.873,6.807,7.982c0.18,0.11,0.332,0.246,0.456,0.407s0.22,0.345,0.286,0.55
			c0.066,0.206,0.1,0.422,0.1,0.649c0,0.389-0.076,0.73-0.227,1.023c-0.15,0.293-0.352,0.537-0.604,0.731s-0.55,0.339-0.892,0.434
			c-0.34,0.095-0.701,0.143-1.083,0.143c-0.696,0-1.296-0.161-1.798-0.484c-0.503-0.323-0.835-0.832-0.996-1.529L3.787,9.5
			C3.846,9.779,3.965,10,4.145,10.161s0.445,0.242,0.797,0.242c0.359,0,0.625-0.093,0.798-0.28s0.259-0.427,0.259-0.721
			c0-0.22-0.047-0.39-0.138-0.511c-0.092-0.121-0.211-0.211-0.357-0.27C5.355,8.562,5.191,8.527,5.008,8.516
			C4.824,8.505,4.641,8.5,4.458,8.5H4.072V7.069z"/>
		<path fill="#FFFFFF" d="M11.123,9.005c-0.088,0.022-0.176,0.041-0.264,0.055s-0.18,0.022-0.275,0.022
			c-0.366,0-0.699-0.066-1-0.198C9.283,8.752,9.026,8.573,8.813,8.346C8.601,8.118,8.436,7.849,8.318,7.537S8.143,6.894,8.143,6.542
			c0-0.403,0.075-0.768,0.226-1.094C8.518,5.121,8.724,4.84,8.984,4.605c0.26-0.234,0.566-0.416,0.918-0.544
			s0.733-0.192,1.145-0.192c0.402,0,0.782,0.064,1.139,0.192c0.355,0.128,0.663,0.31,0.924,0.544
			c0.26,0.235,0.465,0.516,0.615,0.842s0.227,0.691,0.227,1.094c0,0.279-0.026,0.534-0.078,0.765
			c-0.051,0.231-0.119,0.449-0.203,0.654c-0.084,0.206-0.184,0.402-0.297,0.589c-0.113,0.187-0.232,0.379-0.357,0.577l-1.705,2.662
			H9.297L11.123,9.005z M9.793,6.607c0,0.352,0.115,0.644,0.346,0.875c0.231,0.231,0.533,0.347,0.908,0.347
			c0.373,0,0.676-0.116,0.907-0.347s0.347-0.522,0.347-0.875s-0.115-0.644-0.347-0.875s-0.534-0.346-0.907-0.346
			c-0.375,0-0.677,0.115-0.908,0.346C9.908,5.964,9.793,6.255,9.793,6.607z"/>
	</g>
</g>
</svg>
