<?xml version="1.0" encoding="utf-8"?>
<!-- Generator: Adobe Illustrator 16.0.4, SVG Export Plug-In . SVG Version: 6.00 Build 0)  -->
<!DOCTYPE svg PUBLIC "-//W3C//DTD SVG 1.1//EN" "http://www.w3.org/Graphics/SVG/1.1/DTD/svg11.dtd">
<svg version="1.1" id="Layer_1" xmlns="http://www.w3.org/2000/svg" xmlns:xlink="http://www.w3.org/1999/xlink" x="0px" y="0px"
	 width="16px" height="25px" viewBox="0 0 16 25" enable-background="new 0 0 16 25" xml:space="preserve">
<g id="Succeed">
</g>
<g id="Succeed_1_">
</g>
<path fill="#00C9BC" d="M16,8c0-4.418-3.582-8-8-8S0,3.582,0,8c0,4.079,3.055,7.438,7,7.931V25h2v-9.069
	C12.945,15.438,16,12.079,16,8z"/>
<g>
	<g>
		<path fill="#FFFFFF" d="M5.152,10.227H1.753V8.84L4.932,4h1.805v4.84h1v1.386h-1v1.562H5.152V10.227z M5.152,6.157H5.13
			L3.402,8.84h1.75V6.157z"/>
		<path fill="#FFFFFF" d="M11.158,6.784c0.088-0.022,0.176-0.041,0.264-0.055s0.18-0.022,0.274-0.022c0.366,0,0.7,0.066,1.001,0.198
			c0.301,0.132,0.558,0.312,0.77,0.539c0.213,0.228,0.379,0.497,0.496,0.809c0.117,0.312,0.176,0.644,0.176,0.996
			c0,0.403-0.076,0.768-0.226,1.095c-0.15,0.326-0.356,0.606-0.616,0.841s-0.568,0.417-0.924,0.544
			c-0.355,0.128-0.735,0.192-1.139,0.192c-0.41,0-0.792-0.064-1.145-0.192c-0.352-0.128-0.658-0.31-0.918-0.544
			s-0.466-0.515-0.615-0.841C8.406,10.016,8.33,9.651,8.33,9.248c0-0.279,0.025-0.534,0.078-0.765
			c0.051-0.231,0.118-0.449,0.203-0.654C8.695,7.624,8.795,7.427,8.908,7.24s0.232-0.38,0.357-0.578L10.971,4h2.013L11.158,6.784z
			 M12.488,9.182c0-0.352-0.115-0.644-0.346-0.875c-0.231-0.231-0.534-0.347-0.908-0.347s-0.676,0.116-0.907,0.347
			S9.98,8.83,9.98,9.182s0.115,0.644,0.347,0.875s0.533,0.346,0.907,0.346s0.677-0.115,0.908-0.346
			C12.373,9.825,12.488,9.534,12.488,9.182z"/>
	</g>
</g>
</svg>
