<?xml version="1.0" encoding="utf-8"?>
<!-- Generator: Adobe Illustrator 16.0.4, SVG Export Plug-In . SVG Version: 6.00 Build 0)  -->
<!DOCTYPE svg PUBLIC "-//W3C//DTD SVG 1.1//EN" "http://www.w3.org/Graphics/SVG/1.1/DTD/svg11.dtd">
<svg version="1.1" id="Layer_1" xmlns="http://www.w3.org/2000/svg" xmlns:xlink="http://www.w3.org/1999/xlink" x="0px" y="0px"
	 width="16px" height="25px" viewBox="0 0 16 25" enable-background="new 0 0 16 25" xml:space="preserve">
<g id="Succeed">
</g>
<g id="Succeed_1_">
</g>
<path fill="#61AB00" d="M16,8c0-4.418-3.582-8-8-8S0,3.582,0,8c0,4.079,3.055,7.438,7,7.931V25h2v-9.069
	C12.945,15.438,16,12.079,16,8z"/>
<g>
	<g>
		<path fill="#FFFFFF" d="M4.033,7.069h0.539c0.154,0,0.305-0.011,0.451-0.033S5.305,6.973,5.426,6.91s0.218-0.15,0.291-0.264
			s0.109-0.262,0.109-0.445c0-0.235-0.093-0.429-0.279-0.583C5.359,5.463,5.13,5.387,4.859,5.387c-0.258,0-0.471,0.07-0.639,0.209
			c-0.169,0.139-0.279,0.312-0.33,0.517L2.076,5.739c0.088-0.337,0.22-0.625,0.396-0.864c0.177-0.238,0.386-0.431,0.627-0.578
			C3.341,4.151,3.61,4.043,3.907,3.973s0.61-0.104,0.94-0.104c0.345,0,0.677,0.042,0.996,0.126c0.318,0.084,0.6,0.216,0.841,0.396
			c0.242,0.18,0.435,0.405,0.577,0.676c0.144,0.271,0.215,0.594,0.215,0.968c0,0.433-0.113,0.803-0.341,1.111
			s-0.558,0.506-0.99,0.594v0.033c0.235,0.029,0.442,0.099,0.622,0.209C6.947,8.093,7.1,8.229,7.224,8.39s0.22,0.345,0.286,0.55
			c0.066,0.206,0.1,0.422,0.1,0.649c0,0.389-0.076,0.73-0.227,1.023c-0.15,0.293-0.352,0.537-0.604,0.731s-0.55,0.339-0.892,0.434
			c-0.34,0.095-0.701,0.143-1.083,0.143c-0.696,0-1.296-0.161-1.798-0.484c-0.503-0.323-0.835-0.832-0.996-1.529L3.748,9.5
			C3.807,9.779,3.926,10,4.105,10.161s0.445,0.242,0.797,0.242c0.359,0,0.625-0.093,0.798-0.28s0.259-0.427,0.259-0.721
			c0-0.22-0.047-0.39-0.138-0.511C5.729,8.769,5.61,8.679,5.464,8.621C5.316,8.562,5.152,8.527,4.969,8.516
			C4.785,8.505,4.602,8.5,4.419,8.5H4.033V7.069z"/>
		<path fill="#FFFFFF" d="M8.092,7.895c0-0.462,0.043-0.931,0.127-1.408C8.303,6.01,8.453,5.577,8.67,5.188s0.512-0.706,0.886-0.951
			s0.851-0.369,1.43-0.369s1.056,0.123,1.431,0.369c0.373,0.246,0.668,0.562,0.885,0.951s0.367,0.821,0.451,1.298
			c0.084,0.477,0.127,0.946,0.127,1.408s-0.043,0.932-0.127,1.408s-0.234,0.909-0.451,1.298s-0.512,0.706-0.885,0.952
			c-0.375,0.246-0.852,0.368-1.431,0.368s-1.056-0.123-1.43-0.368s-0.669-0.563-0.886-0.952S8.303,9.779,8.219,9.303
			S8.092,8.356,8.092,7.895z M9.742,7.895c0,0.206,0.01,0.451,0.027,0.737c0.019,0.286,0.068,0.561,0.148,0.825
			c0.081,0.264,0.204,0.488,0.369,0.671c0.165,0.184,0.397,0.275,0.698,0.275c0.294,0,0.524-0.091,0.693-0.275
			c0.169-0.183,0.293-0.407,0.374-0.671c0.08-0.264,0.13-0.539,0.148-0.825c0.018-0.286,0.027-0.531,0.027-0.737
			c0-0.205-0.01-0.451-0.027-0.737c-0.019-0.286-0.068-0.561-0.148-0.825c-0.081-0.264-0.205-0.488-0.374-0.671
			s-0.399-0.275-0.693-0.275c-0.301,0-0.533,0.092-0.698,0.275S9.999,6.068,9.918,6.333c-0.08,0.264-0.13,0.539-0.148,0.825
			C9.752,7.443,9.742,7.689,9.742,7.895z"/>
	</g>
</g>
</svg>
