<?xml version="1.0" encoding="utf-8"?>
<!-- Generator: Adobe Illustrator 16.0.4, SVG Export Plug-In . SVG Version: 6.00 Build 0)  -->
<!DOCTYPE svg PUBLIC "-//W3C//DTD SVG 1.1//EN" "http://www.w3.org/Graphics/SVG/1.1/DTD/svg11.dtd">
<svg version="1.1" id="Layer_1" xmlns="http://www.w3.org/2000/svg" xmlns:xlink="http://www.w3.org/1999/xlink" x="0px" y="0px"
	 width="16px" height="25px" viewBox="0 0 16 25" enable-background="new 0 0 16 25" xml:space="preserve">
<g id="Succeed">
</g>
<g id="Succeed_1_">
</g>
<path fill="#0077CF" d="M16,8c0-4.418-3.582-8-8-8S0,3.582,0,8c0,4.079,3.055,7.438,7,7.931V25h2v-9.069
	C12.945,15.438,16,12.079,16,8z"/>
<g>
	<g>
		<path fill="#FFFFFF" d="M4.193,7.069h0.539c0.154,0,0.305-0.011,0.451-0.033s0.28-0.064,0.401-0.126s0.218-0.15,0.292-0.264
			c0.072-0.114,0.109-0.262,0.109-0.445c0-0.235-0.094-0.429-0.28-0.583C5.52,5.463,5.289,5.387,5.019,5.387
			c-0.257,0-0.47,0.07-0.638,0.209c-0.17,0.139-0.279,0.312-0.33,0.517L2.235,5.739c0.088-0.337,0.22-0.625,0.396-0.864
			c0.177-0.238,0.386-0.431,0.627-0.578C3.5,4.151,3.77,4.043,4.066,3.973s0.611-0.104,0.941-0.104c0.344,0,0.676,0.042,0.995,0.126
			s0.6,0.216,0.841,0.396c0.242,0.18,0.436,0.405,0.578,0.676c0.143,0.271,0.215,0.594,0.215,0.968c0,0.433-0.114,0.803-0.342,1.111
			c-0.227,0.308-0.557,0.506-0.99,0.594v0.033C6.54,7.803,6.747,7.873,6.927,7.982c0.18,0.11,0.332,0.246,0.456,0.407
			c0.125,0.161,0.221,0.345,0.287,0.55c0.065,0.206,0.099,0.422,0.099,0.649c0,0.389-0.075,0.73-0.226,1.023
			c-0.15,0.293-0.352,0.537-0.605,0.731c-0.252,0.194-0.55,0.339-0.891,0.434S5.345,11.92,4.963,11.92
			c-0.696,0-1.296-0.161-1.798-0.484C2.662,11.114,2.33,10.604,2.17,9.908L3.907,9.5C3.966,9.779,4.085,10,4.265,10.161
			s0.446,0.242,0.798,0.242c0.359,0,0.625-0.093,0.797-0.28c0.173-0.187,0.259-0.427,0.259-0.721c0-0.22-0.046-0.39-0.138-0.511
			S5.77,8.679,5.623,8.621S5.312,8.527,5.129,8.516C4.945,8.505,4.762,8.5,4.578,8.5H4.193V7.069z"/>
		<path fill="#FFFFFF" d="M11.926,5.519h-3.85V4h5.698v1.452l-3.112,6.336H8.736L11.926,5.519z"/>
	</g>
</g>
</svg>
