<?xml version="1.0" encoding="utf-8"?>
<!-- Generator: Adobe Illustrator 16.0.4, SVG Export Plug-In . SVG Version: 6.00 Build 0)  -->
<!DOCTYPE svg PUBLIC "-//W3C//DTD SVG 1.1//EN" "http://www.w3.org/Graphics/SVG/1.1/DTD/svg11.dtd">
<svg version="1.1" id="Layer_1" xmlns="http://www.w3.org/2000/svg" xmlns:xlink="http://www.w3.org/1999/xlink" x="0px" y="0px"
	 width="16px" height="25px" viewBox="0 0 16 25" enable-background="new 0 0 16 25" xml:space="preserve">
<g id="Succeed">
</g>
<g id="Succeed_1_">
</g>
<path fill="#0077CF" d="M16,8c0-4.418-3.582-8-8-8S0,3.582,0,8c0,4.079,3.055,7.438,7,7.931V25h2v-9.069
	C12.945,15.438,16,12.079,16,8z"/>
<g>
	<path fill="#FFFFFF" d="M8.01,9.212c-0.096,0.024-0.191,0.044-0.287,0.06C7.626,9.288,7.525,9.296,7.422,9.296
		c-0.4,0-0.764-0.072-1.092-0.216S5.723,8.74,5.49,8.492S5.078,7.95,4.95,7.61C4.822,7.27,4.758,6.908,4.758,6.524
		c0-0.44,0.082-0.838,0.246-1.194s0.389-0.662,0.672-0.918C5.96,4.156,6.294,3.958,6.678,3.818c0.385-0.14,0.801-0.21,1.248-0.21
		c0.44,0,0.854,0.07,1.242,0.21c0.389,0.14,0.725,0.338,1.008,0.594c0.284,0.256,0.508,0.562,0.672,0.918s0.246,0.754,0.246,1.194
		c0,0.304-0.027,0.582-0.084,0.834c-0.056,0.252-0.13,0.49-0.222,0.714c-0.093,0.224-0.2,0.438-0.324,0.642
		c-0.124,0.204-0.254,0.414-0.39,0.63l-1.86,2.904H6.018L8.01,9.212z M6.559,6.596c0,0.384,0.125,0.702,0.377,0.954
		c0.252,0.252,0.582,0.378,0.99,0.378s0.738-0.126,0.99-0.378c0.252-0.252,0.378-0.57,0.378-0.954c0-0.384-0.126-0.702-0.378-0.954
		s-0.582-0.378-0.99-0.378S7.188,5.39,6.936,5.642S6.559,6.212,6.559,6.596z"/>
</g>
</svg>
