<?xml version="1.0" encoding="utf-8"?>
<!-- Generator: Adobe Illustrator 16.0.4, SVG Export Plug-In . SVG Version: 6.00 Build 0)  -->
<!DOCTYPE svg PUBLIC "-//W3C//DTD SVG 1.1//EN" "http://www.w3.org/Graphics/SVG/1.1/DTD/svg11.dtd">
<svg version="1.1" id="Layer_1" xmlns="http://www.w3.org/2000/svg" xmlns:xlink="http://www.w3.org/1999/xlink" x="0px" y="0px"
	 width="16px" height="25px" viewBox="0 0 16 25" enable-background="new 0 0 16 25" xml:space="preserve">
<g id="Succeed">
</g>
<g id="Succeed_1_">
</g>
<path fill="#7400B8" d="M16,8c0-4.418-3.582-8-8-8S0,3.582,0,8c0,4.079,3.055,7.438,7,7.931V25h2v-9.069
	C12.945,15.438,16,12.079,16,8z"/>
<g>
	<path fill="#FFFFFF" d="M5.036,10.34l3.3-2.964C8.504,7.224,8.672,7.052,8.84,6.86c0.168-0.192,0.252-0.416,0.252-0.672
		c0-0.288-0.104-0.514-0.312-0.678S8.328,5.264,8.048,5.264c-0.336,0-0.598,0.104-0.786,0.312C7.074,5.784,6.968,6.04,6.944,6.344
		L5.144,6.212C5.168,5.772,5.26,5.39,5.42,5.066c0.16-0.324,0.372-0.594,0.636-0.81C6.32,4.04,6.63,3.878,6.986,3.77
		c0.355-0.108,0.741-0.162,1.157-0.162c0.385,0,0.744,0.054,1.08,0.162S9.852,4.038,10.1,4.25s0.442,0.478,0.582,0.798
		c0.141,0.32,0.21,0.692,0.21,1.116c0,0.272-0.027,0.518-0.084,0.738c-0.056,0.22-0.134,0.42-0.233,0.6
		C10.474,7.682,10.355,7.848,10.22,8c-0.136,0.152-0.284,0.3-0.443,0.444l-2.58,2.22h3.768v1.584H5.036V10.34z"/>
</g>
</svg>
