<?xml version="1.0" encoding="utf-8"?>
<!-- Generator: Adobe Illustrator 16.0.4, SVG Export Plug-In . SVG Version: 6.00 Build 0)  -->
<!DOCTYPE svg PUBLIC "-//W3C//DTD SVG 1.1//EN" "http://www.w3.org/Graphics/SVG/1.1/DTD/svg11.dtd">
<svg version="1.1" id="Layer_1" xmlns="http://www.w3.org/2000/svg" xmlns:xlink="http://www.w3.org/1999/xlink" x="0px" y="0px"
	 width="16px" height="25px" viewBox="0 0 16 25" enable-background="new 0 0 16 25" xml:space="preserve">
<g id="Succeed">
</g>
<g id="Succeed_1_">
</g>
<path fill="#0077CF" d="M16,8c0-4.418-3.582-8-8-8S0,3.582,0,8c0,4.079,3.055,7.438,7,7.931V25h2v-9.069
	C12.945,15.438,16,12.079,16,8z"/>
<g>
	<g>
		<path fill="#FFFFFF" d="M4.998,10.227H1.6V8.84L4.777,4h1.805v4.84h1.001v1.386H6.582v1.562H4.998V10.227z M4.998,6.157H4.977
			L3.249,8.84h1.749V6.157z"/>
		<path fill="#FFFFFF" d="M7.99,7.895c0-0.462,0.042-0.931,0.126-1.408c0.085-0.477,0.235-0.91,0.451-1.298s0.512-0.706,0.886-0.951
			s0.851-0.369,1.43-0.369c0.58,0,1.057,0.123,1.43,0.369c0.375,0.246,0.67,0.562,0.886,0.951s0.366,0.821,0.451,1.298
			c0.085,0.477,0.126,0.946,0.126,1.408s-0.041,0.932-0.126,1.408s-0.235,0.909-0.451,1.298s-0.511,0.706-0.886,0.952
			c-0.373,0.246-0.85,0.368-1.43,0.368c-0.579,0-1.056-0.123-1.43-0.368s-0.67-0.563-0.886-0.952S8.201,9.779,8.116,9.303
			C8.032,8.826,7.99,8.356,7.99,7.895z M9.641,7.895c0,0.206,0.008,0.451,0.027,0.737c0.018,0.286,0.067,0.561,0.148,0.825
			c0.08,0.264,0.203,0.488,0.368,0.671c0.165,0.184,0.397,0.275,0.698,0.275c0.293,0,0.524-0.091,0.693-0.275
			c0.168-0.183,0.293-0.407,0.374-0.671s0.13-0.539,0.148-0.825c0.019-0.286,0.027-0.531,0.027-0.737
			c0-0.205-0.009-0.451-0.027-0.737c-0.019-0.286-0.067-0.561-0.148-0.825s-0.206-0.488-0.374-0.671
			c-0.169-0.183-0.4-0.275-0.693-0.275c-0.301,0-0.533,0.092-0.698,0.275S9.896,6.068,9.816,6.333
			C9.735,6.597,9.686,6.872,9.668,7.158C9.648,7.443,9.641,7.689,9.641,7.895z"/>
	</g>
</g>
</svg>
