<?xml version="1.0" encoding="utf-8"?>
<!-- Generator: Adobe Illustrator 16.0.4, SVG Export Plug-In . SVG Version: 6.00 Build 0)  -->
<!DOCTYPE svg PUBLIC "-//W3C//DTD SVG 1.1//EN" "http://www.w3.org/Graphics/SVG/1.1/DTD/svg11.dtd">
<svg version="1.1" id="Layer_1" xmlns="http://www.w3.org/2000/svg" xmlns:xlink="http://www.w3.org/1999/xlink" x="0px" y="0px"
	 width="16px" height="25px" viewBox="0 0 16 25" enable-background="new 0 0 16 25" xml:space="preserve">
<g id="Succeed">
</g>
<g id="Succeed_1_">
</g>
<path fill="#0077CF" d="M16,8c0-4.418-3.582-8-8-8S0,3.582,0,8c0,4.079,3.055,7.438,7,7.931V25h2v-9.069
	C12.945,15.438,16,12.079,16,8z"/>
<g>
	<g>
		<path fill="#FFFFFF" d="M4.998,10.227H1.6V8.84L4.777,4h1.805v4.84h1.001v1.386H6.582v1.562H4.998V10.227z M4.998,6.157H4.977
			L3.249,8.84h1.749V6.157z"/>
		<path fill="#FFFFFF" d="M11.29,10.227H7.891V8.84L11.07,4h1.804v4.84h1.001v1.386h-1.001v1.562H11.29V10.227z M11.29,6.157h-0.022
			L9.541,8.84h1.749V6.157z"/>
	</g>
</g>
</svg>
