<?xml version="1.0" encoding="utf-8"?>
<!-- Generator: Adobe Illustrator 16.0.4, SVG Export Plug-In . SVG Version: 6.00 Build 0)  -->
<!DOCTYPE svg PUBLIC "-//W3C//DTD SVG 1.1//EN" "http://www.w3.org/Graphics/SVG/1.1/DTD/svg11.dtd">
<svg version="1.1" id="Layer_1" xmlns="http://www.w3.org/2000/svg" xmlns:xlink="http://www.w3.org/1999/xlink" x="0px" y="0px"
	 width="16px" height="25px" viewBox="0 0 16 25" enable-background="new 0 0 16 25" xml:space="preserve">
<g id="Succeed">
</g>
<g id="Succeed_1_">
</g>
<path fill="#FF9500" d="M16,8c0-4.418-3.582-8-8-8S0,3.582,0,8c0,4.079,3.055,7.438,7,7.931V25h2v-9.069
	C12.945,15.438,16,12.079,16,8z"/>
<g>
	<path fill="#FFFFFF" d="M7.202,5.453H4.111L4.078,6.651c0.168-0.059,0.399-0.088,0.693-0.088c0.396,0,0.759,0.059,1.089,0.176
		c0.329,0.117,0.614,0.288,0.853,0.511c0.238,0.224,0.424,0.495,0.555,0.814C7.4,8.384,7.467,8.742,7.467,9.138
		c0,0.44-0.076,0.832-0.227,1.177s-0.357,0.636-0.621,0.875s-0.578,0.42-0.94,0.544c-0.363,0.125-0.757,0.187-1.183,0.187
		c-0.675,0-1.239-0.165-1.693-0.495c-0.455-0.33-0.768-0.829-0.936-1.496l1.727-0.396c0.045,0.279,0.162,0.504,0.353,0.676
		c0.19,0.172,0.429,0.259,0.715,0.259c0.353,0,0.632-0.11,0.841-0.33c0.209-0.22,0.314-0.499,0.314-0.836
		c0-0.257-0.054-0.468-0.16-0.633C5.551,8.505,5.41,8.373,5.238,8.274C5.066,8.175,4.873,8.107,4.661,8.071
		C4.448,8.034,4.236,8.016,4.023,8.016c-0.271,0-0.545,0.026-0.82,0.077C2.929,8.144,2.662,8.213,2.406,8.302L2.494,4h4.708V5.453z"
		/>
	<path fill="#FFFFFF" d="M8.335,7.895c0-0.462,0.042-0.931,0.126-1.408c0.085-0.477,0.235-0.91,0.451-1.298
		C9.129,4.8,9.424,4.483,9.799,4.237c0.373-0.246,0.85-0.369,1.43-0.369c0.579,0,1.056,0.123,1.43,0.369s0.669,0.562,0.885,0.951
		c0.217,0.389,0.367,0.821,0.451,1.298c0.085,0.477,0.127,0.946,0.127,1.408s-0.042,0.932-0.127,1.408
		c-0.084,0.477-0.234,0.909-0.451,1.298c-0.216,0.389-0.511,0.706-0.885,0.952s-0.851,0.368-1.43,0.368
		c-0.58,0-1.057-0.123-1.43-0.368c-0.375-0.246-0.67-0.563-0.887-0.952c-0.216-0.389-0.366-0.821-0.451-1.298
		C8.377,8.826,8.335,8.356,8.335,7.895z M9.985,7.895c0,0.206,0.009,0.451,0.027,0.737c0.019,0.286,0.067,0.561,0.148,0.825
		s0.204,0.488,0.368,0.671c0.166,0.184,0.398,0.275,0.699,0.275c0.293,0,0.523-0.091,0.693-0.275
		c0.168-0.183,0.293-0.407,0.373-0.671c0.081-0.264,0.131-0.539,0.148-0.825c0.019-0.286,0.027-0.531,0.027-0.737
		c0-0.205-0.009-0.451-0.027-0.737c-0.018-0.286-0.067-0.561-0.148-0.825c-0.08-0.264-0.205-0.488-0.373-0.671
		c-0.17-0.183-0.4-0.275-0.693-0.275c-0.301,0-0.533,0.092-0.699,0.275c-0.164,0.183-0.287,0.407-0.368,0.671
		s-0.13,0.539-0.148,0.825C9.994,7.443,9.985,7.689,9.985,7.895z"/>
</g>
</svg>
