<?xml version="1.0" encoding="utf-8"?>
<!-- Generator: Adobe Illustrator 16.0.4, SVG Export Plug-In . SVG Version: 6.00 Build 0)  -->
<!DOCTYPE svg PUBLIC "-//W3C//DTD SVG 1.1//EN" "http://www.w3.org/Graphics/SVG/1.1/DTD/svg11.dtd">
<svg version="1.1" id="Layer_1" xmlns="http://www.w3.org/2000/svg" xmlns:xlink="http://www.w3.org/1999/xlink" x="0px" y="0px"
	 width="16px" height="25px" viewBox="0 0 16 25" enable-background="new 0 0 16 25" xml:space="preserve">
<g id="Succeed">
</g>
<g id="Succeed_1_">
</g>
<path fill="#FC5B00" d="M16,8c0-4.418-3.582-8-8-8S0,3.582,0,8c0,4.079,3.055,7.438,7,7.931V25h2v-9.069
	C12.945,15.438,16,12.079,16,8z"/>
<g>
	<g>
		<path fill="#FFFFFF" d="M2.258,10.04l3.025-2.717C5.436,7.184,5.59,7.025,5.744,6.85c0.154-0.176,0.23-0.381,0.23-0.616
			c0-0.264-0.094-0.471-0.285-0.621S5.275,5.387,5.018,5.387c-0.307,0-0.547,0.095-0.719,0.286c-0.174,0.191-0.27,0.426-0.293,0.704
			L2.357,6.255c0.021-0.403,0.105-0.753,0.252-1.05s0.342-0.544,0.584-0.743c0.24-0.198,0.525-0.346,0.852-0.445
			s0.68-0.148,1.062-0.148c0.352,0,0.682,0.049,0.988,0.148C6.404,4.116,6.672,4.263,6.9,4.457c0.227,0.194,0.404,0.438,0.533,0.731
			c0.127,0.293,0.191,0.634,0.191,1.023c0,0.25-0.025,0.475-0.076,0.677s-0.123,0.385-0.215,0.55S7.135,7.755,7.01,7.895
			c-0.125,0.14-0.26,0.275-0.408,0.407l-2.363,2.035h3.453v1.452H2.258V10.04z"/>
		<path fill="#FFFFFF" d="M13.477,5.453h-3.09l-0.033,1.199c0.168-0.059,0.398-0.088,0.693-0.088c0.395,0,0.758,0.059,1.088,0.176
			s0.615,0.288,0.854,0.511c0.238,0.224,0.424,0.495,0.555,0.814c0.133,0.319,0.199,0.677,0.199,1.073
			c0,0.44-0.076,0.832-0.227,1.177s-0.357,0.636-0.621,0.875s-0.578,0.42-0.941,0.544c-0.363,0.125-0.756,0.187-1.182,0.187
			c-0.676,0-1.24-0.165-1.693-0.495c-0.455-0.33-0.768-0.829-0.936-1.496l1.727-0.396c0.045,0.279,0.162,0.504,0.352,0.676
			c0.191,0.172,0.43,0.259,0.715,0.259c0.354,0,0.633-0.11,0.842-0.33c0.209-0.22,0.314-0.499,0.314-0.836
			c0-0.257-0.055-0.468-0.16-0.633s-0.246-0.297-0.418-0.396c-0.172-0.099-0.365-0.167-0.578-0.203s-0.424-0.055-0.637-0.055
			c-0.271,0-0.545,0.026-0.82,0.077S8.938,8.213,8.682,8.302L8.77,4h4.707V5.453z"/>
	</g>
</g>
</svg>
