<?xml version="1.0" encoding="utf-8"?>
<!-- Generator: Adobe Illustrator 16.0.4, SVG Export Plug-In . SVG Version: 6.00 Build 0)  -->
<!DOCTYPE svg PUBLIC "-//W3C//DTD SVG 1.1//EN" "http://www.w3.org/Graphics/SVG/1.1/DTD/svg11.dtd">
<svg version="1.1" id="Layer_1" xmlns="http://www.w3.org/2000/svg" xmlns:xlink="http://www.w3.org/1999/xlink" x="0px" y="0px"
	 width="16px" height="25px" viewBox="0 0 16 25" enable-background="new 0 0 16 25" xml:space="preserve">
<g id="Succeed">
</g>
<g id="Succeed_1_">
</g>
<path fill="#7400B8" d="M16,8c0-4.418-3.582-8-8-8S0,3.582,0,8c0,4.079,3.055,7.438,7,7.931V25h2v-9.069
	C12.945,15.438,16,12.079,16,8z"/>
<g>
	<path fill="#FFFFFF" d="M4.671,5.849L3.109,7.224L2.174,6.146L4.715,4h1.54v7.788H4.671V5.849z"/>
	<path fill="#FFFFFF" d="M10.292,6.784c0.088-0.022,0.176-0.041,0.264-0.055s0.18-0.022,0.274-0.022
		c0.367,0,0.701,0.066,1.002,0.198c0.301,0.132,0.557,0.312,0.77,0.539c0.213,0.228,0.378,0.497,0.495,0.809
		c0.117,0.312,0.177,0.644,0.177,0.996c0,0.403-0.076,0.768-0.227,1.095c-0.15,0.326-0.355,0.606-0.615,0.841
		c-0.261,0.235-0.568,0.417-0.924,0.544c-0.356,0.128-0.736,0.192-1.139,0.192c-0.411,0-0.793-0.064-1.145-0.192
		c-0.352-0.128-0.658-0.31-0.918-0.544c-0.261-0.235-0.467-0.515-0.616-0.841c-0.15-0.327-0.226-0.691-0.226-1.095
		c0-0.279,0.025-0.534,0.077-0.765C7.593,8.252,7.66,8.034,7.745,7.829C7.83,7.624,7.929,7.427,8.043,7.24
		C8.156,7.053,8.275,6.86,8.4,6.663L10.105,4h2.012L10.292,6.784z M11.623,9.182c0-0.352-0.115-0.644-0.347-0.875
		S10.742,7.96,10.369,7.96c-0.375,0-0.677,0.116-0.908,0.347C9.23,8.538,9.115,8.83,9.115,9.182s0.115,0.644,0.346,0.875
		c0.231,0.231,0.533,0.346,0.908,0.346c0.373,0,0.676-0.115,0.907-0.346S11.623,9.534,11.623,9.182z"/>
</g>
</svg>
