<?xml version="1.0" encoding="utf-8"?>
<!-- Generator: Adobe Illustrator 16.0.4, SVG Export Plug-In . SVG Version: 6.00 Build 0)  -->
<!DOCTYPE svg PUBLIC "-//W3C//DTD SVG 1.1//EN" "http://www.w3.org/Graphics/SVG/1.1/DTD/svg11.dtd">
<svg version="1.1" id="Layer_1" xmlns="http://www.w3.org/2000/svg" xmlns:xlink="http://www.w3.org/1999/xlink" x="0px" y="0px"
	 width="16px" height="25px" viewBox="0 0 16 25" enable-background="new 0 0 16 25" xml:space="preserve">
<g id="Succeed">
</g>
<g id="Succeed_1_">
</g>
<path fill="#FF9500" d="M16,8c0-4.418-3.582-8-8-8S0,3.582,0,8c0,4.079,3.055,7.438,7,7.931V25h2v-9.069
	C12.945,15.438,16,12.079,16,8z"/>
<g>
	<g>
		<path fill="#FFFFFF" d="M2.159,10.04l3.024-2.717C5.337,7.184,5.491,7.025,5.646,6.85c0.154-0.176,0.23-0.381,0.23-0.616
			c0-0.264-0.095-0.471-0.285-0.621c-0.191-0.15-0.414-0.226-0.672-0.226c-0.307,0-0.547,0.095-0.72,0.286
			C4.026,5.863,3.93,6.098,3.907,6.376L2.258,6.255c0.022-0.403,0.106-0.753,0.253-1.05s0.341-0.544,0.583-0.743
			C3.335,4.265,3.62,4.116,3.946,4.017s0.68-0.148,1.062-0.148c0.353,0,0.682,0.049,0.989,0.148c0.309,0.099,0.576,0.246,0.804,0.44
			s0.405,0.438,0.533,0.731c0.128,0.293,0.192,0.634,0.192,1.023c0,0.25-0.025,0.475-0.076,0.677
			C7.398,7.09,7.327,7.273,7.235,7.438s-0.2,0.317-0.324,0.457C6.786,8.034,6.65,8.169,6.503,8.302l-2.364,2.035h3.454v1.452H2.159
			V10.04z"/>
		<path fill="#FFFFFF" d="M8.054,7.895c0-0.462,0.043-0.931,0.127-1.408c0.084-0.477,0.234-0.91,0.451-1.298
			s0.512-0.706,0.886-0.951s0.851-0.369,1.43-0.369s1.056,0.123,1.431,0.369c0.373,0.246,0.668,0.562,0.885,0.951
			s0.367,0.821,0.451,1.298c0.084,0.477,0.127,0.946,0.127,1.408s-0.043,0.932-0.127,1.408s-0.234,0.909-0.451,1.298
			s-0.512,0.706-0.885,0.952c-0.375,0.246-0.852,0.368-1.431,0.368s-1.056-0.123-1.43-0.368s-0.669-0.563-0.886-0.952
			S8.265,9.779,8.181,9.303S8.054,8.356,8.054,7.895z M9.704,7.895c0,0.206,0.01,0.451,0.027,0.737C9.75,8.917,9.8,9.192,9.88,9.457
			c0.081,0.264,0.204,0.488,0.369,0.671c0.165,0.184,0.397,0.275,0.698,0.275c0.294,0,0.524-0.091,0.693-0.275
			c0.169-0.183,0.293-0.407,0.374-0.671c0.08-0.264,0.13-0.539,0.148-0.825C12.181,8.346,12.19,8.1,12.19,7.895
			c0-0.205-0.01-0.451-0.027-0.737c-0.019-0.286-0.068-0.561-0.148-0.825c-0.081-0.264-0.205-0.488-0.374-0.671
			s-0.399-0.275-0.693-0.275c-0.301,0-0.533,0.092-0.698,0.275S9.961,6.068,9.88,6.333C9.8,6.597,9.75,6.872,9.731,7.158
			C9.714,7.443,9.704,7.689,9.704,7.895z"/>
	</g>
</g>
</svg>
