<?xml version="1.0" encoding="utf-8"?>
<!-- Generator: Adobe Illustrator 16.0.4, SVG Export Plug-In . SVG Version: 6.00 Build 0)  -->
<!DOCTYPE svg PUBLIC "-//W3C//DTD SVG 1.1//EN" "http://www.w3.org/Graphics/SVG/1.1/DTD/svg11.dtd">
<svg version="1.1" id="Layer_1" xmlns="http://www.w3.org/2000/svg" xmlns:xlink="http://www.w3.org/1999/xlink" x="0px" y="0px"
	 width="16px" height="25px" viewBox="0 0 16 25" enable-background="new 0 0 16 25" xml:space="preserve">
<g id="Succeed">
</g>
<g id="Succeed_1_">
</g>
<path fill="#61AB00" d="M16,8c0-4.418-3.582-8-8-8S0,3.582,0,8c0,4.079,3.055,7.438,7,7.931V25h2v-9.069
	C12.945,15.438,16,12.079,16,8z"/>
<g>
	<path fill="#FFFFFF" d="M4.671,5.849L3.109,7.224L2.174,6.146L4.715,4h1.54v7.788H4.671V5.849z"/>
	<path fill="#FFFFFF" d="M7.674,10.04l3.025-2.717c0.153-0.139,0.308-0.297,0.461-0.473c0.154-0.176,0.231-0.381,0.231-0.616
		c0-0.264-0.095-0.471-0.286-0.621c-0.19-0.15-0.414-0.226-0.671-0.226c-0.308,0-0.548,0.095-0.72,0.286
		c-0.173,0.191-0.27,0.426-0.292,0.704L7.773,6.255c0.021-0.403,0.105-0.753,0.252-1.05s0.342-0.544,0.584-0.743
		c0.241-0.198,0.525-0.346,0.852-0.445s0.681-0.148,1.062-0.148c0.352,0,0.682,0.049,0.989,0.148s0.575,0.246,0.804,0.44
		c0.227,0.194,0.404,0.438,0.533,0.731c0.128,0.293,0.192,0.634,0.192,1.023c0,0.25-0.026,0.475-0.077,0.677
		s-0.123,0.385-0.215,0.55s-0.199,0.317-0.324,0.457c-0.125,0.14-0.26,0.275-0.407,0.407l-2.364,2.035h3.453v1.452H7.674V10.04z"/>
</g>
</svg>
