<?xml version="1.0" encoding="utf-8"?>
<!-- Generator: Adobe Illustrator 16.0.4, SVG Export Plug-In . SVG Version: 6.00 Build 0)  -->
<!DOCTYPE svg PUBLIC "-//W3C//DTD SVG 1.1//EN" "http://www.w3.org/Graphics/SVG/1.1/DTD/svg11.dtd">
<svg version="1.1" id="Layer_1" xmlns="http://www.w3.org/2000/svg" xmlns:xlink="http://www.w3.org/1999/xlink" x="0px" y="0px"
	 width="16px" height="25px" viewBox="0 0 16 25" enable-background="new 0 0 16 25" xml:space="preserve">
<g id="Succeed">
</g>
<g id="Succeed_1_">
</g>
<path fill="#FF9500" d="M16,8c0-4.418-3.582-8-8-8S0,3.582,0,8c0,4.079,3.055,7.438,7,7.931V25h2v-9.069
	C12.945,15.438,16,12.079,16,8z"/>
<g>
	<path fill="#FFFFFF" d="M4.671,5.849L3.109,7.224L2.174,6.146L4.715,4h1.54v7.788H4.671V5.849z"/>
	<path fill="#FFFFFF" d="M12.822,5.453H9.73L9.697,6.651c0.169-0.059,0.4-0.088,0.693-0.088c0.396,0,0.76,0.059,1.09,0.176
		c0.329,0.117,0.613,0.288,0.852,0.511c0.238,0.224,0.424,0.495,0.556,0.814c0.132,0.319,0.198,0.677,0.198,1.073
		c0,0.44-0.076,0.832-0.226,1.177c-0.15,0.345-0.357,0.636-0.622,0.875c-0.264,0.238-0.577,0.42-0.939,0.544
		c-0.363,0.125-0.758,0.187-1.184,0.187c-0.674,0-1.238-0.165-1.693-0.495c-0.455-0.33-0.767-0.829-0.936-1.496l1.728-0.396
		c0.044,0.279,0.161,0.504,0.353,0.676c0.189,0.172,0.428,0.259,0.715,0.259c0.352,0,0.632-0.11,0.841-0.33
		c0.209-0.22,0.313-0.499,0.313-0.836c0-0.257-0.053-0.468-0.159-0.633s-0.246-0.297-0.418-0.396
		c-0.173-0.099-0.365-0.167-0.577-0.203c-0.213-0.037-0.426-0.055-0.639-0.055c-0.271,0-0.545,0.026-0.819,0.077
		S8.282,8.213,8.025,8.302L8.113,4h4.709V5.453z"/>
</g>
</svg>
