<?xml version="1.0" encoding="utf-8"?>
<!-- Generator: Adobe Illustrator 16.0.4, SVG Export Plug-In . SVG Version: 6.00 Build 0)  -->
<!DOCTYPE svg PUBLIC "-//W3C//DTD SVG 1.1//EN" "http://www.w3.org/Graphics/SVG/1.1/DTD/svg11.dtd">
<svg version="1.1" id="Layer_1" xmlns="http://www.w3.org/2000/svg" xmlns:xlink="http://www.w3.org/1999/xlink" x="0px" y="0px"
	 width="16px" height="25px" viewBox="0 0 16 25" enable-background="new 0 0 16 25" xml:space="preserve">
<g id="Succeed">
</g>
<g id="Succeed_1_">
</g>
<path fill="#61AB00" d="M16,8c0-4.418-3.582-8-8-8S0,3.582,0,8c0,4.079,3.055,7.438,7,7.931V25h2v-9.069
	C12.945,15.438,16,12.079,16,8z"/>
<g>
	<path fill="#FFFFFF" d="M5.132,10.227H1.733V8.84L4.912,4h1.804v4.84h1.002v1.386H6.716v1.562H5.132V10.227z M5.132,6.157H5.11
		L3.384,8.84h1.748V6.157z"/>
	<path fill="#FFFFFF" d="M10.896,9.005c-0.088,0.022-0.176,0.041-0.264,0.055s-0.18,0.022-0.275,0.022c-0.366,0-0.699-0.066-1-0.198
		C9.056,8.752,8.799,8.573,8.586,8.346C8.373,8.118,8.208,7.849,8.091,7.537S7.915,6.894,7.915,6.542
		c0-0.403,0.075-0.768,0.226-1.094C8.29,5.121,8.496,4.84,8.757,4.605c0.26-0.234,0.566-0.416,0.918-0.544s0.733-0.192,1.145-0.192
		c0.402,0,0.782,0.064,1.139,0.192c0.355,0.128,0.663,0.31,0.924,0.544c0.26,0.235,0.465,0.516,0.615,0.842s0.227,0.691,0.227,1.094
		c0,0.279-0.026,0.534-0.078,0.765c-0.051,0.231-0.119,0.449-0.203,0.654c-0.084,0.206-0.184,0.402-0.297,0.589
		c-0.113,0.187-0.232,0.379-0.357,0.577l-1.705,2.662H9.069L10.896,9.005z M9.565,6.607c0,0.352,0.115,0.644,0.346,0.875
		c0.231,0.231,0.533,0.347,0.908,0.347c0.373,0,0.676-0.116,0.907-0.347s0.347-0.522,0.347-0.875s-0.115-0.644-0.347-0.875
		s-0.534-0.346-0.907-0.346c-0.375,0-0.677,0.115-0.908,0.346C9.681,5.964,9.565,6.255,9.565,6.607z"/>
</g>
</svg>
