<?xml version="1.0" encoding="utf-8"?>
<!-- Generator: Adobe Illustrator 16.0.4, SVG Export Plug-In . SVG Version: 6.00 Build 0)  -->
<!DOCTYPE svg PUBLIC "-//W3C//DTD SVG 1.1//EN" "http://www.w3.org/Graphics/SVG/1.1/DTD/svg11.dtd">
<svg version="1.1" id="Layer_1" xmlns="http://www.w3.org/2000/svg" xmlns:xlink="http://www.w3.org/1999/xlink" x="0px" y="0px"
	 width="16px" height="25px" viewBox="0 0 16 25" enable-background="new 0 0 16 25" xml:space="preserve">
<g id="Succeed">
</g>
<g id="Succeed_1_">
</g>
<path fill="#00C9BC" d="M16,8c0-4.418-3.582-8-8-8S0,3.582,0,8c0,4.079,3.055,7.438,7,7.931V25h2v-9.069
	C12.945,15.438,16,12.079,16,8z"/>
<g>
	<g>
		<path fill="#FFFFFF" d="M2.182,10.04l3.024-2.717C5.359,7.184,5.514,7.025,5.668,6.85c0.154-0.176,0.23-0.381,0.23-0.616
			c0-0.264-0.095-0.471-0.285-0.621c-0.191-0.15-0.414-0.226-0.672-0.226c-0.307,0-0.547,0.095-0.72,0.286
			C4.049,5.863,3.952,6.098,3.93,6.376L2.28,6.255c0.022-0.403,0.106-0.753,0.253-1.05s0.341-0.544,0.583-0.743
			c0.241-0.198,0.526-0.346,0.853-0.445s0.68-0.148,1.062-0.148c0.353,0,0.682,0.049,0.989,0.148
			c0.309,0.099,0.576,0.246,0.804,0.44s0.405,0.438,0.533,0.731c0.128,0.293,0.192,0.634,0.192,1.023
			c0,0.25-0.025,0.475-0.076,0.677C7.421,7.09,7.35,7.273,7.258,7.438s-0.2,0.317-0.324,0.457c-0.125,0.14-0.261,0.275-0.408,0.407
			l-2.364,2.035h3.454v1.452H2.182V10.04z"/>
		<path fill="#FFFFFF" d="M11.971,5.519h-3.85V4h5.697v1.452l-3.112,6.336H8.781L11.971,5.519z"/>
	</g>
</g>
</svg>
