<?xml version="1.0" encoding="utf-8"?>
<!-- Generator: Adobe Illustrator 16.0.4, SVG Export Plug-In . SVG Version: 6.00 Build 0)  -->
<!DOCTYPE svg PUBLIC "-//W3C//DTD SVG 1.1//EN" "http://www.w3.org/Graphics/SVG/1.1/DTD/svg11.dtd">
<svg version="1.1" id="Layer_1" xmlns="http://www.w3.org/2000/svg" xmlns:xlink="http://www.w3.org/1999/xlink" x="0px" y="0px"
	 width="16px" height="25px" viewBox="0 0 16 25" enable-background="new 0 0 16 25" xml:space="preserve">
<g id="Succeed">
</g>
<g id="Succeed_1_">
</g>
<path fill="#FF9500" d="M16,8c0-4.418-3.582-8-8-8S0,3.582,0,8c0,4.079,3.055,7.438,7,7.931V25h2v-9.069
	C12.945,15.438,16,12.079,16,8z"/>
<g>
	<path fill="#FFFFFF" d="M2.796,10.04l3.023-2.717C5.974,7.184,6.128,7.025,6.282,6.85c0.154-0.176,0.23-0.381,0.23-0.616
		c0-0.264-0.096-0.471-0.285-0.621c-0.191-0.15-0.414-0.226-0.672-0.226c-0.307,0-0.547,0.095-0.721,0.286
		c-0.172,0.191-0.27,0.426-0.291,0.704l-1.65-0.121c0.023-0.403,0.107-0.753,0.254-1.05s0.34-0.544,0.582-0.743
		c0.242-0.198,0.527-0.346,0.854-0.445s0.68-0.148,1.061-0.148c0.354,0,0.682,0.049,0.99,0.148s0.576,0.246,0.803,0.44
		C7.665,4.651,7.843,4.896,7.97,5.188c0.129,0.293,0.193,0.634,0.193,1.023c0,0.25-0.025,0.475-0.076,0.677
		C8.034,7.09,7.964,7.273,7.872,7.438S7.671,7.755,7.548,7.895C7.423,8.034,7.286,8.169,7.14,8.302l-2.365,2.035h3.455v1.452H2.796
		V10.04z"/>
	<path fill="#FFFFFF" d="M11.056,5.849L9.493,7.224L8.56,6.146L11.101,4h1.539v7.788h-1.584V5.849z"/>
</g>
</svg>
