<?xml version="1.0" encoding="utf-8"?>
<!-- Generator: Adobe Illustrator 16.0.4, SVG Export Plug-In . SVG Version: 6.00 Build 0)  -->
<!DOCTYPE svg PUBLIC "-//W3C//DTD SVG 1.1//EN" "http://www.w3.org/Graphics/SVG/1.1/DTD/svg11.dtd">
<svg version="1.1" id="Layer_1" xmlns="http://www.w3.org/2000/svg" xmlns:xlink="http://www.w3.org/1999/xlink" x="0px" y="0px"
	 width="16px" height="25px" viewBox="0 0 16 25" enable-background="new 0 0 16 25" xml:space="preserve">
<g id="Succeed">
</g>
<g id="Succeed_1_">
</g>
<path fill="#0077CF" d="M16,8c0-4.418-3.582-8-8-8S0,3.582,0,8c0,4.079,3.055,7.438,7,7.931V25h2v-9.069
	C12.945,15.438,16,12.079,16,8z"/>
<g>
	<g>
		<path fill="#FFFFFF" d="M2.247,10.04l3.024-2.717C5.425,7.184,5.579,7.025,5.733,6.85c0.154-0.176,0.23-0.381,0.23-0.616
			c0-0.264-0.095-0.471-0.285-0.621c-0.191-0.15-0.414-0.226-0.672-0.226c-0.307,0-0.547,0.095-0.72,0.286
			c-0.173,0.191-0.27,0.426-0.292,0.704L2.346,6.255c0.022-0.403,0.106-0.753,0.253-1.05s0.341-0.544,0.583-0.743
			c0.241-0.198,0.526-0.346,0.853-0.445s0.68-0.148,1.062-0.148c0.353,0,0.682,0.049,0.989,0.148
			c0.309,0.099,0.576,0.246,0.804,0.44s0.405,0.438,0.533,0.731C7.55,5.482,7.614,5.823,7.614,6.211c0,0.25-0.025,0.475-0.076,0.677
			C7.486,7.09,7.415,7.273,7.323,7.438s-0.2,0.317-0.324,0.457c-0.125,0.14-0.261,0.275-0.408,0.407l-2.364,2.035h3.454v1.452H2.247
			V10.04z"/>
		<path fill="#FFFFFF" d="M8.318,10.04l3.024-2.717c0.154-0.139,0.309-0.297,0.463-0.473c0.154-0.176,0.23-0.381,0.23-0.616
			c0-0.264-0.096-0.471-0.285-0.621c-0.191-0.15-0.415-0.226-0.672-0.226c-0.308,0-0.548,0.095-0.721,0.286
			c-0.172,0.191-0.27,0.426-0.291,0.704l-1.65-0.121c0.022-0.403,0.106-0.753,0.254-1.05c0.146-0.297,0.34-0.544,0.582-0.743
			c0.242-0.198,0.526-0.346,0.854-0.445c0.326-0.099,0.68-0.148,1.061-0.148c0.353,0,0.682,0.049,0.99,0.148s0.576,0.246,0.803,0.44
			c0.228,0.194,0.405,0.438,0.533,0.731c0.129,0.293,0.193,0.634,0.193,1.023c0,0.25-0.025,0.475-0.077,0.677
			s-0.123,0.385-0.214,0.55c-0.092,0.165-0.201,0.317-0.325,0.457c-0.125,0.14-0.261,0.275-0.407,0.407l-2.365,2.035h3.455v1.452
			H8.318V10.04z"/>
	</g>
</g>
</svg>
