<?xml version="1.0" encoding="utf-8"?>
<!-- Generator: Adobe Illustrator 16.0.4, SVG Export Plug-In . SVG Version: 6.00 Build 0)  -->
<!DOCTYPE svg PUBLIC "-//W3C//DTD SVG 1.1//EN" "http://www.w3.org/Graphics/SVG/1.1/DTD/svg11.dtd">
<svg version="1.1" id="Layer_1" xmlns="http://www.w3.org/2000/svg" xmlns:xlink="http://www.w3.org/1999/xlink" x="0px" y="0px"
	 width="16px" height="25px" viewBox="0 0 16 25" enable-background="new 0 0 16 25" xml:space="preserve">
<g id="Succeed">
</g>
<g id="Succeed_1_">
</g>
<path fill="#FC5B00" d="M16,8c0-4.418-3.582-8-8-8S0,3.582,0,8c0,4.079,3.055,7.438,7,7.931V25h2v-9.069
	C12.945,15.438,16,12.079,16,8z"/>
<g>
	<path fill="#FFFFFF" d="M4.671,5.849L3.109,7.224L2.174,6.146L4.715,4h1.54v7.788H4.671V5.849z"/>
	<path fill="#FFFFFF" d="M9.511,7.069h0.539c0.153,0,0.304-0.011,0.451-0.033c0.146-0.022,0.28-0.064,0.401-0.126
		s0.219-0.15,0.291-0.264c0.074-0.114,0.11-0.262,0.11-0.445c0-0.235-0.093-0.429-0.28-0.583c-0.188-0.154-0.416-0.231-0.688-0.231
		c-0.257,0-0.47,0.07-0.639,0.209c-0.168,0.139-0.278,0.312-0.33,0.517L7.553,5.739c0.088-0.337,0.221-0.625,0.396-0.864
		s0.385-0.431,0.627-0.578c0.242-0.146,0.512-0.254,0.809-0.324s0.609-0.104,0.939-0.104c0.346,0,0.678,0.042,0.996,0.126
		s0.6,0.216,0.842,0.396s0.434,0.405,0.577,0.676c0.144,0.271,0.214,0.594,0.214,0.968c0,0.433-0.113,0.803-0.34,1.111
		c-0.229,0.308-0.559,0.506-0.99,0.594v0.033c0.234,0.029,0.441,0.099,0.621,0.209c0.18,0.11,0.332,0.246,0.457,0.407
		c0.124,0.161,0.22,0.345,0.285,0.55c0.066,0.206,0.1,0.422,0.1,0.649c0,0.389-0.076,0.73-0.226,1.023
		c-0.15,0.293-0.353,0.537-0.604,0.731c-0.254,0.194-0.551,0.339-0.892,0.434s-0.702,0.143-1.083,0.143
		c-0.697,0-1.297-0.161-1.799-0.484s-0.834-0.832-0.996-1.529L9.225,9.5C9.283,9.779,9.402,10,9.582,10.161s0.445,0.242,0.798,0.242
		c0.358,0,0.625-0.093,0.798-0.28c0.172-0.187,0.258-0.427,0.258-0.721c0-0.22-0.046-0.39-0.137-0.511
		c-0.092-0.121-0.211-0.211-0.357-0.27c-0.147-0.059-0.312-0.094-0.496-0.104C10.262,8.505,10.079,8.5,9.896,8.5H9.511V7.069z"/>
</g>
</svg>
