<?xml version="1.0" encoding="utf-8"?>
<!-- Generator: Adobe Illustrator 16.0.4, SVG Export Plug-In . SVG Version: 6.00 Build 0)  -->
<!DOCTYPE svg PUBLIC "-//W3C//DTD SVG 1.1//EN" "http://www.w3.org/Graphics/SVG/1.1/DTD/svg11.dtd">
<svg version="1.1" id="Layer_1" xmlns="http://www.w3.org/2000/svg" xmlns:xlink="http://www.w3.org/1999/xlink" x="0px" y="0px"
	 width="16px" height="25px" viewBox="0 0 16 25" enable-background="new 0 0 16 25" xml:space="preserve">
<g id="Succeed">
</g>
<g id="Succeed_1_">
</g>
<path fill="#FF9500" d="M16,8c0-4.418-3.582-8-8-8S0,3.582,0,8c0,4.079,3.055,7.438,7,7.931V25h2v-9.069
	C12.945,15.438,16,12.079,16,8z"/>
<g>
	<path fill="#FFFFFF" d="M5.591,10.227H2.191V8.84L5.371,4h1.804v4.84h1.001v1.386H7.175v1.562H5.591V10.227z M5.591,6.157H5.568
		L3.842,8.84h1.749V6.157z"/>
	<path fill="#FFFFFF" d="M10.728,5.849L9.166,7.224L8.23,6.146L10.771,4h1.54v7.788h-1.584V5.849z"/>
</g>
</svg>
