<?xml version="1.0" encoding="utf-8"?>
<!-- Generator: Adobe Illustrator 16.0.4, SVG Export Plug-In . SVG Version: 6.00 Build 0)  -->
<!DOCTYPE svg PUBLIC "-//W3C//DTD SVG 1.1//EN" "http://www.w3.org/Graphics/SVG/1.1/DTD/svg11.dtd">
<svg version="1.1" id="Layer_1" xmlns="http://www.w3.org/2000/svg" xmlns:xlink="http://www.w3.org/1999/xlink" x="0px" y="0px"
	 width="16px" height="25px" viewBox="0 0 16 25" enable-background="new 0 0 16 25" xml:space="preserve">
<g id="Succeed">
</g>
<g id="Succeed_1_">
</g>
<path fill="#00C9BC" d="M16,8c0-4.418-3.582-8-8-8S0,3.582,0,8c0,4.079,3.055,7.438,7,7.931V25h2v-9.069
	C12.945,15.438,16,12.079,16,8z"/>
<g>
	<path fill="#FFFFFF" d="M10.766,5.336H7.394L7.358,6.644C7.542,6.58,7.794,6.548,8.114,6.548c0.432,0,0.828,0.064,1.188,0.192
		c0.36,0.128,0.67,0.314,0.93,0.558c0.26,0.244,0.462,0.54,0.606,0.888s0.216,0.738,0.216,1.17c0,0.48-0.083,0.908-0.246,1.284
		c-0.164,0.376-0.39,0.694-0.678,0.954c-0.288,0.26-0.63,0.458-1.026,0.594c-0.396,0.136-0.826,0.204-1.29,0.204
		c-0.736,0-1.352-0.18-1.848-0.54s-0.836-0.904-1.02-1.632L6.83,9.788c0.048,0.304,0.176,0.55,0.384,0.738
		c0.208,0.188,0.468,0.282,0.78,0.282c0.384,0,0.69-0.12,0.918-0.36c0.228-0.24,0.342-0.544,0.342-0.912
		c0-0.28-0.058-0.51-0.174-0.69c-0.116-0.18-0.268-0.324-0.456-0.432s-0.398-0.182-0.63-0.222c-0.232-0.04-0.464-0.06-0.696-0.06
		c-0.296,0-0.594,0.028-0.894,0.084c-0.3,0.056-0.59,0.132-0.87,0.228L5.63,3.752h5.136V5.336z"/>
</g>
</svg>
