<?xml version="1.0" encoding="utf-8"?>
<!-- Generator: Adobe Illustrator 16.0.4, SVG Export Plug-In . SVG Version: 6.00 Build 0)  -->
<!DOCTYPE svg PUBLIC "-//W3C//DTD SVG 1.1//EN" "http://www.w3.org/Graphics/SVG/1.1/DTD/svg11.dtd">
<svg version="1.1" id="Layer_1" xmlns="http://www.w3.org/2000/svg" xmlns:xlink="http://www.w3.org/1999/xlink" x="0px" y="0px"
	 width="16px" height="25px" viewBox="0 0 16 25" enable-background="new 0 0 16 25" xml:space="preserve">
<g id="Succeed">
</g>
<g id="Succeed_1_">
</g>
<path fill="#FC5B00" d="M16,8c0-4.418-3.582-8-8-8S0,3.582,0,8c0,4.079,3.055,7.438,7,7.931V25h2v-9.069
	C12.945,15.438,16,12.079,16,8z"/>
<g>
	<g>
		<path fill="#FFFFFF" d="M2.432,10.04l3.025-2.717C5.611,7.184,5.766,7.025,5.919,6.85C6.073,6.673,6.15,6.468,6.15,6.233
			c0-0.264-0.096-0.471-0.286-0.621S5.449,5.387,5.193,5.387c-0.309,0-0.549,0.095-0.721,0.286c-0.172,0.191-0.27,0.426-0.291,0.704
			l-1.65-0.121c0.021-0.403,0.105-0.753,0.253-1.05c0.146-0.297,0.341-0.544,0.583-0.743C3.609,4.265,3.893,4.116,4.22,4.017
			C4.546,3.918,4.9,3.869,5.281,3.869c0.352,0,0.682,0.049,0.99,0.148c0.308,0.099,0.575,0.246,0.803,0.44
			c0.227,0.194,0.404,0.438,0.533,0.731c0.129,0.293,0.193,0.634,0.193,1.023c0,0.25-0.026,0.475-0.078,0.677
			C7.672,7.09,7.6,7.273,7.509,7.438c-0.092,0.165-0.2,0.317-0.325,0.457c-0.125,0.14-0.26,0.275-0.406,0.407l-2.365,2.035h3.454
			v1.452H2.432V10.04z"/>
		<path fill="#FFFFFF" d="M11.122,6.784c0.088-0.022,0.176-0.041,0.264-0.055s0.18-0.022,0.274-0.022
			c0.367,0,0.701,0.066,1.002,0.198c0.301,0.132,0.557,0.312,0.77,0.539c0.213,0.228,0.378,0.497,0.495,0.809
			c0.117,0.312,0.177,0.644,0.177,0.996c0,0.403-0.076,0.768-0.227,1.095c-0.15,0.326-0.355,0.606-0.615,0.841
			c-0.261,0.235-0.568,0.417-0.924,0.544c-0.356,0.128-0.736,0.192-1.139,0.192c-0.411,0-0.793-0.064-1.145-0.192
			c-0.352-0.128-0.658-0.31-0.918-0.544c-0.261-0.235-0.467-0.515-0.616-0.841c-0.15-0.327-0.226-0.691-0.226-1.095
			c0-0.279,0.025-0.534,0.077-0.765C8.423,8.252,8.49,8.034,8.575,7.829C8.66,7.624,8.759,7.427,8.873,7.24
			C8.986,7.053,9.105,6.86,9.23,6.663L10.936,4h2.012L11.122,6.784z M12.453,9.182c0-0.352-0.115-0.644-0.347-0.875
			S11.572,7.96,11.199,7.96c-0.375,0-0.677,0.116-0.908,0.347c-0.23,0.231-0.346,0.522-0.346,0.875s0.115,0.644,0.346,0.875
			c0.231,0.231,0.533,0.346,0.908,0.346c0.373,0,0.676-0.115,0.907-0.346S12.453,9.534,12.453,9.182z"/>
	</g>
</g>
</svg>
