<?xml version="1.0" encoding="utf-8"?>
<!-- Generator: Adobe Illustrator 16.0.4, SVG Export Plug-In . SVG Version: 6.00 Build 0)  -->
<!DOCTYPE svg PUBLIC "-//W3C//DTD SVG 1.1//EN" "http://www.w3.org/Graphics/SVG/1.1/DTD/svg11.dtd">
<svg version="1.1" id="Layer_1" xmlns="http://www.w3.org/2000/svg" xmlns:xlink="http://www.w3.org/1999/xlink" x="0px" y="0px"
	 width="16px" height="25px" viewBox="0 0 16 25" enable-background="new 0 0 16 25" xml:space="preserve">
<g id="Succeed">
</g>
<g id="Succeed_1_">
</g>
<path fill="#0077CF" d="M16,8c0-4.418-3.582-8-8-8S0,3.582,0,8c0,4.079,3.055,7.438,7,7.931V25h2v-9.069
	C12.945,15.438,16,12.079,16,8z"/>
<g>
	<g>
		<path fill="#FFFFFF" d="M2.143,10.04l3.024-2.717C5.32,7.184,5.475,7.025,5.629,6.85c0.154-0.176,0.23-0.381,0.23-0.616
			c0-0.264-0.095-0.471-0.285-0.621C5.383,5.462,5.16,5.387,4.902,5.387c-0.307,0-0.547,0.095-0.72,0.286
			C4.01,5.863,3.913,6.098,3.891,6.376L2.241,6.255c0.022-0.403,0.106-0.753,0.253-1.05s0.341-0.544,0.583-0.743
			C3.318,4.265,3.604,4.116,3.93,4.017s0.68-0.148,1.062-0.148c0.353,0,0.682,0.049,0.989,0.148c0.309,0.099,0.576,0.246,0.804,0.44
			s0.405,0.438,0.533,0.731C7.445,5.482,7.51,5.823,7.51,6.211c0,0.25-0.025,0.475-0.076,0.677C7.382,7.09,7.311,7.273,7.219,7.438
			s-0.2,0.317-0.324,0.457C6.77,8.034,6.634,8.169,6.486,8.302l-2.364,2.035h3.454v1.452H2.143V10.04z"/>
		<path fill="#FFFFFF" d="M11.029,9.005c-0.088,0.022-0.176,0.041-0.264,0.055s-0.18,0.022-0.275,0.022
			c-0.366,0-0.699-0.066-1-0.198C9.189,8.752,8.933,8.573,8.72,8.346C8.507,8.118,8.342,7.849,8.225,7.537S8.049,6.894,8.049,6.542
			c0-0.403,0.075-0.768,0.226-1.094C8.424,5.121,8.63,4.84,8.891,4.605c0.26-0.234,0.566-0.416,0.918-0.544s0.733-0.192,1.145-0.192
			c0.402,0,0.782,0.064,1.139,0.192c0.355,0.128,0.663,0.31,0.924,0.544c0.26,0.235,0.465,0.516,0.615,0.842
			s0.227,0.691,0.227,1.094c0,0.279-0.026,0.534-0.078,0.765c-0.051,0.231-0.119,0.449-0.203,0.654
			c-0.084,0.206-0.184,0.402-0.297,0.589c-0.113,0.187-0.232,0.379-0.357,0.577l-1.705,2.662H9.203L11.029,9.005z M9.699,6.607
			c0,0.352,0.115,0.644,0.346,0.875c0.231,0.231,0.533,0.347,0.908,0.347c0.373,0,0.676-0.116,0.907-0.347s0.347-0.522,0.347-0.875
			s-0.115-0.644-0.347-0.875s-0.534-0.346-0.907-0.346c-0.375,0-0.677,0.115-0.908,0.346C9.814,5.964,9.699,6.255,9.699,6.607z"/>
	</g>
</g>
</svg>
