<?xml version="1.0" encoding="utf-8"?>
<!-- Generator: Adobe Illustrator 16.0.4, SVG Export Plug-In . SVG Version: 6.00 Build 0)  -->
<!DOCTYPE svg PUBLIC "-//W3C//DTD SVG 1.1//EN" "http://www.w3.org/Graphics/SVG/1.1/DTD/svg11.dtd">
<svg version="1.1" id="Layer_1" xmlns="http://www.w3.org/2000/svg" xmlns:xlink="http://www.w3.org/1999/xlink" x="0px" y="0px"
	 width="16px" height="25px" viewBox="0 0 16 25" enable-background="new 0 0 16 25" xml:space="preserve">
<g id="Succeed">
</g>
<g id="Succeed_1_">
</g>
<path fill="#61AB00" d="M16,8c0-4.418-3.582-8-8-8S0,3.582,0,8c0,4.079,3.055,7.438,7,7.931V25h2v-9.069
	C12.945,15.438,16,12.079,16,8z"/>
<g>
	<g>
		<path fill="#FFFFFF" d="M2.258,10.04l3.025-2.717C5.436,7.184,5.59,7.025,5.744,6.85c0.154-0.176,0.23-0.381,0.23-0.616
			c0-0.264-0.094-0.471-0.285-0.621S5.275,5.387,5.018,5.387c-0.307,0-0.547,0.095-0.719,0.286c-0.174,0.191-0.27,0.426-0.293,0.704
			L2.357,6.255c0.021-0.403,0.105-0.753,0.252-1.05s0.342-0.544,0.584-0.743c0.24-0.198,0.525-0.346,0.852-0.445
			s0.68-0.148,1.062-0.148c0.352,0,0.682,0.049,0.988,0.148C6.404,4.116,6.672,4.263,6.9,4.457c0.227,0.194,0.404,0.438,0.533,0.731
			c0.127,0.293,0.191,0.634,0.191,1.023c0,0.25-0.025,0.475-0.076,0.677s-0.123,0.385-0.215,0.55S7.135,7.755,7.01,7.895
			c-0.125,0.14-0.26,0.275-0.408,0.407l-2.363,2.035h3.453v1.452H2.258V10.04z"/>
		<path fill="#FFFFFF" d="M10.166,7.069h0.539c0.154,0,0.305-0.011,0.451-0.033s0.281-0.064,0.402-0.126s0.217-0.15,0.291-0.264
			c0.072-0.114,0.109-0.262,0.109-0.445c0-0.235-0.094-0.429-0.279-0.583c-0.188-0.154-0.418-0.231-0.688-0.231
			c-0.258,0-0.471,0.07-0.639,0.209c-0.17,0.139-0.279,0.312-0.33,0.517L8.209,5.739c0.088-0.337,0.219-0.625,0.395-0.864
			C8.781,4.637,8.99,4.444,9.23,4.297c0.242-0.146,0.512-0.254,0.809-0.324s0.611-0.104,0.941-0.104
			c0.344,0,0.676,0.042,0.996,0.126c0.318,0.084,0.6,0.216,0.84,0.396c0.242,0.18,0.436,0.405,0.578,0.676
			c0.143,0.271,0.215,0.594,0.215,0.968c0,0.433-0.113,0.803-0.342,1.111c-0.227,0.308-0.557,0.506-0.99,0.594v0.033
			c0.236,0.029,0.443,0.099,0.623,0.209c0.18,0.11,0.332,0.246,0.455,0.407c0.125,0.161,0.221,0.345,0.287,0.55
			c0.066,0.206,0.1,0.422,0.1,0.649c0,0.389-0.076,0.73-0.227,1.023c-0.15,0.293-0.352,0.537-0.605,0.731
			c-0.252,0.194-0.549,0.339-0.891,0.434c-0.34,0.095-0.701,0.143-1.084,0.143c-0.695,0-1.295-0.161-1.797-0.484
			c-0.504-0.323-0.836-0.832-0.996-1.529L9.881,9.5c0.059,0.279,0.178,0.499,0.357,0.66s0.445,0.242,0.797,0.242
			c0.359,0,0.625-0.093,0.797-0.28c0.174-0.187,0.26-0.427,0.26-0.721c0-0.22-0.047-0.39-0.139-0.511s-0.211-0.211-0.357-0.27
			s-0.311-0.094-0.494-0.104C10.918,8.505,10.734,8.5,10.551,8.5h-0.385V7.069z"/>
	</g>
</g>
</svg>
